solid OpenSCAD_Model
  facet normal -1 0 0
    outer loop
      vertex -68.5 21.5 3.99494
      vertex -68.5 21.5 21.001
      vertex -68.5 28.5 3.99494
    endloop
  endfacet
  facet normal -1 0 0
    outer loop
      vertex -68.5 28.5 3.99494
      vertex -68.5 21.5 21.001
      vertex -68.5 28.5 21.001
    endloop
  endfacet
  facet normal 0 -1 0
    outer loop
      vertex -68.5 21.5 21.001
      vertex -68.5 21.5 3.99494
      vertex -68.0428 21.5 2.14011
    endloop
  endfacet
  facet normal 0 -1 0
    outer loop
      vertex -64.9831 21.5 0.028165
      vertex -68.5 21.5 21.001
      vertex -66.7733 21.5 0.707065
    endloop
  endfacet
  facet normal 0 -1 0
    outer loop
      vertex -66.7733 21.5 0.707065
      vertex -68.5 21.5 21.001
      vertex -68.0428 21.5 2.14011
    endloop
  endfacet
  facet normal 0 -1 0
    outer loop
      vertex -64.501 21.5 0.0867081
      vertex -68.5 21.5 21.001
      vertex -64.9831 21.5 0.028165
    endloop
  endfacet
  facet normal 0 -1 0
    outer loop
      vertex -61.2985 21.5 11.6783
      vertex -68.5 21.5 21.001
      vertex -64.501 21.5 0.0867081
    endloop
  endfacet
  facet normal 0 -1 0
    outer loop
      vertex -33.5 21.5 0
      vertex -64.501 21.5 0.0867081
      vertex -64.501 21.5 0
    endloop
  endfacet
  facet normal 0 -1 0
    outer loop
      vertex -57.2884 21.5 15.1531
      vertex -56.2947 21.5 14.2921
      vertex -33.5 21.5 0
    endloop
  endfacet
  facet normal 0 -1 0
    outer loop
      vertex -59.2141 21.5 15.2504
      vertex -68.4133 21.5 21.001
      vertex -68.5 21.5 21.001
    endloop
  endfacet
  facet normal 0 -1 0
    outer loop
      vertex -59.2141 21.5 15.2504
      vertex -58.9151 21.5 15.387
      vertex -68.4133 21.5 21.001
    endloop
  endfacet
  facet normal 0 -1 0
    outer loop
      vertex -35.5833 21.5 12.5
      vertex -35.9537 21.5 11.2385
      vertex -33.5 21.5 0
    endloop
  endfacet
  facet normal 0 -1 0
    outer loop
      vertex -60.41 21.5 10.2957
      vertex -61.2985 21.5 11.6783
      vertex -64.501 21.5 0.0867081
    endloop
  endfacet
  facet normal 0 -1 0
    outer loop
      vertex -61.2985 21.5 13.3217
      vertex -68.5 21.5 21.001
      vertex -61.2985 21.5 11.6783
    endloop
  endfacet
  facet normal 0 -1 0
    outer loop
      vertex -60.5877 21.5 14.4278
      vertex -68.5 21.5 21.001
      vertex -61.2985 21.5 13.3217
    endloop
  endfacet
  facet normal 0 -1 0
    outer loop
      vertex -60.41 21.5 14.7043
      vertex -68.5 21.5 21.001
      vertex -60.5877 21.5 14.4278
    endloop
  endfacet
  facet normal 0 -1 0
    outer loop
      vertex -56.0463 21.5 10.9231
      vertex -57.04 21.5 10.0622
      vertex -33.5 21.5 0
    endloop
  endfacet
  facet normal 0 -1 0
    outer loop
      vertex -59.2141 21.5 15.2504
      vertex -68.5 21.5 21.001
      vertex -60.41 21.5 14.7043
    endloop
  endfacet
  facet normal 0 -1 0
    outer loop
      vertex -56.0463 21.5 14.0769
      vertex -55.6759 21.5 12.8154
      vertex -33.5 21.5 0
    endloop
  endfacet
  facet normal 0 -1 0
    outer loop
      vertex -55.5833 21.5 12.5
      vertex -55.9537 21.5 11.2385
      vertex -33.5 21.5 0
    endloop
  endfacet
  facet normal 0 -1 0
    outer loop
      vertex -33.5 21.5 25
      vertex -68.4133 21.5 21.001
      vertex -58.9151 21.5 15.387
    endloop
  endfacet
  facet normal 0 -1 0
    outer loop
      vertex -33.5 21.5 25
      vertex -58.9151 21.5 15.387
      vertex -57.6137 21.5 15.1999
    endloop
  endfacet
  facet normal 0 -1 0
    outer loop
      vertex -40.41 21.5 10.2957
      vertex -57.2884 21.5 15.1531
      vertex -33.5 21.5 0
    endloop
  endfacet
  facet normal 0 -1 0
    outer loop
      vertex -33.5 21.5 25
      vertex -57.6137 21.5 15.1999
      vertex -57.2884 21.5 15.1531
    endloop
  endfacet
  facet normal 0 -1 0
    outer loop
      vertex -56.2947 21.5 14.2921
      vertex -56.0463 21.5 14.0769
      vertex -33.5 21.5 0
    endloop
  endfacet
  facet normal 0 -1 0
    outer loop
      vertex -40.41 21.5 14.7043
      vertex -39.2141 21.5 15.2504
      vertex -33.5 21.5 25
    endloop
  endfacet
  facet normal 0 -1 0
    outer loop
      vertex -33.5 21.5 0
      vertex -55.6759 21.5 12.8154
      vertex -55.5833 21.5 12.5
    endloop
  endfacet
  facet normal 0 -1 0
    outer loop
      vertex -57.04 21.5 10.0622
      vertex -57.2884 21.5 9.84691
      vertex -33.5 21.5 0
    endloop
  endfacet
  facet normal 0 -1 0
    outer loop
      vertex -33.5 21.5 0
      vertex -55.9537 21.5 11.2385
      vertex -56.0463 21.5 10.9231
    endloop
  endfacet
  facet normal 0 -1 0
    outer loop
      vertex -33.5 21.5 0
      vertex -57.2884 21.5 9.84691
      vertex -64.501 21.5 0.0867081
    endloop
  endfacet
  facet normal 0 -1 0
    outer loop
      vertex -57.2884 21.5 9.84691
      vertex -58.5897 21.5 9.6598
      vertex -64.501 21.5 0.0867081
    endloop
  endfacet
  facet normal 0 -1 0
    outer loop
      vertex -58.5897 21.5 9.6598
      vertex -58.9151 21.5 9.61302
      vertex -64.501 21.5 0.0867081
    endloop
  endfacet
  facet normal 0 -1 0
    outer loop
      vertex -58.9151 21.5 9.61302
      vertex -60.111 21.5 10.1592
      vertex -64.501 21.5 0.0867081
    endloop
  endfacet
  facet normal 0 -1 0
    outer loop
      vertex -60.111 21.5 10.1592
      vertex -60.41 21.5 10.2957
      vertex -64.501 21.5 0.0867081
    endloop
  endfacet
  facet normal 0 -1 0
    outer loop
      vertex -61.1208 21.5 11.4018
      vertex -61.2985 21.5 11.6783
      vertex -60.41 21.5 10.2957
    endloop
  endfacet
  facet normal 0 -1 0
    outer loop
      vertex -41.2985 21.5 13.3217
      vertex -57.2884 21.5 15.1531
      vertex -41.2985 21.5 11.6783
    endloop
  endfacet
  facet normal 0 -1 0
    outer loop
      vertex -40.5877 21.5 14.4278
      vertex -57.2884 21.5 15.1531
      vertex -41.2985 21.5 13.3217
    endloop
  endfacet
  facet normal 0 -1 0
    outer loop
      vertex -39.2141 21.5 15.2504
      vertex -38.9151 21.5 15.387
      vertex -33.5 21.5 25
    endloop
  endfacet
  facet normal 0 -1 0
    outer loop
      vertex -40.41 21.5 14.7043
      vertex -57.2884 21.5 15.1531
      vertex -40.5877 21.5 14.4278
    endloop
  endfacet
  facet normal 0 -1 0
    outer loop
      vertex -33.5 21.5 25
      vertex -57.2884 21.5 15.1531
      vertex -40.41 21.5 14.7043
    endloop
  endfacet
  facet normal 0 -1 0
    outer loop
      vertex -37.04 21.5 10.0622
      vertex -37.2884 21.5 9.84691
      vertex -33.5 21.5 0
    endloop
  endfacet
  facet normal 0 -1 0
    outer loop
      vertex -33.5 21.5 25
      vertex -38.9151 21.5 15.387
      vertex -37.6137 21.5 15.1999
    endloop
  endfacet
  facet normal 0 -1 0
    outer loop
      vertex -40.111 21.5 10.1592
      vertex -40.41 21.5 10.2957
      vertex -33.5 21.5 0
    endloop
  endfacet
  facet normal 0 -1 0
    outer loop
      vertex -33.5 21.5 25
      vertex -37.6137 21.5 15.1999
      vertex -37.2884 21.5 15.1531
    endloop
  endfacet
  facet normal 0 -1 0
    outer loop
      vertex -33.5 21.5 25
      vertex -37.2884 21.5 15.1531
      vertex -36.2947 21.5 14.2921
    endloop
  endfacet
  facet normal 0 -1 0
    outer loop
      vertex -36.0463 21.5 10.9231
      vertex -37.04 21.5 10.0622
      vertex -33.5 21.5 0
    endloop
  endfacet
  facet normal 0 -1 0
    outer loop
      vertex -33.5 21.5 25
      vertex -36.2947 21.5 14.2921
      vertex -36.0463 21.5 14.0769
    endloop
  endfacet
  facet normal 0 -1 0
    outer loop
      vertex -33.5 21.5 25
      vertex -36.0463 21.5 14.0769
      vertex -35.6759 21.5 12.8154
    endloop
  endfacet
  facet normal 0 -1 0
    outer loop
      vertex -33.5 21.5 25
      vertex -35.5833 21.5 12.5
      vertex -33.5 21.5 0
    endloop
  endfacet
  facet normal 0 -1 0
    outer loop
      vertex -33.5 21.5 25
      vertex -35.6759 21.5 12.8154
      vertex -35.5833 21.5 12.5
    endloop
  endfacet
  facet normal 0 -1 0
    outer loop
      vertex -35.9537 21.5 11.2385
      vertex -36.0463 21.5 10.9231
      vertex -33.5 21.5 0
    endloop
  endfacet
  facet normal 0 -1 0
    outer loop
      vertex -37.2884 21.5 9.84691
      vertex -38.5897 21.5 9.6598
      vertex -33.5 21.5 0
    endloop
  endfacet
  facet normal 0 -1 0
    outer loop
      vertex -38.5897 21.5 9.6598
      vertex -38.9151 21.5 9.61302
      vertex -33.5 21.5 0
    endloop
  endfacet
  facet normal 0 -1 0
    outer loop
      vertex -38.9151 21.5 9.61302
      vertex -40.111 21.5 10.1592
      vertex -33.5 21.5 0
    endloop
  endfacet
  facet normal 0 -1 0
    outer loop
      vertex -41.2985 21.5 11.6783
      vertex -57.2884 21.5 15.1531
      vertex -40.41 21.5 10.2957
    endloop
  endfacet
  facet normal 0 -1 0
    outer loop
      vertex -41.2985 21.5 11.6783
      vertex -40.41 21.5 10.2957
      vertex -41.1208 21.5 11.4018
    endloop
  endfacet
  facet normal 0 -1 0
    outer loop
      vertex -68.4718 21.5 21.4831
      vertex -66.3599 21.5 24.5428
      vertex -67.7929 21.5 23.2733
    endloop
  endfacet
  facet normal 0 -1 0
    outer loop
      vertex -68.4718 21.5 21.4831
      vertex -64.5051 21.5 25
      vertex -66.3599 21.5 24.5428
    endloop
  endfacet
  facet normal 0 -1 0
    outer loop
      vertex -68.4718 21.5 21.4831
      vertex -33.5 21.5 25
      vertex -64.5051 21.5 25
    endloop
  endfacet
  facet normal 0 -1 0
    outer loop
      vertex -68.4718 21.5 21.4831
      vertex -68.4133 21.5 21.001
      vertex -33.5 21.5 25
    endloop
  endfacet
  facet normal -0.970942 5.31388e-17 -0.239316
    outer loop
      vertex -68.5 21.5 3.99494
      vertex -68.5 28.5 3.99494
      vertex -68.0428 21.5 2.14011
    endloop
  endfacet
  facet normal -0.970942 5.31388e-17 -0.239316
    outer loop
      vertex -68.0428 21.5 2.14011
      vertex -68.5 28.5 3.99494
      vertex -68.0428 28.5 2.14011
    endloop
  endfacet
  facet normal 0 1 0
    outer loop
      vertex -68.5 28.5 3.99494
      vertex -68.5 28.5 21.001
      vertex -68.0428 28.5 2.14011
    endloop
  endfacet
  facet normal 0 1 0
    outer loop
      vertex -68.0428 28.5 2.14011
      vertex -68.5 28.5 21.001
      vertex -68.4133 28.5 21.001
    endloop
  endfacet
  facet normal 0 1 0
    outer loop
      vertex -68.4133 28.5 21.001
      vertex -68.4718 28.5 21.4831
      vertex -67.7929 28.5 23.2733
    endloop
  endfacet
  facet normal 0 1 0
    outer loop
      vertex -68.4133 28.5 21.001
      vertex -67.7929 28.5 23.2733
      vertex -68.0428 28.5 2.14011
    endloop
  endfacet
  facet normal 0 1 0
    outer loop
      vertex -68.0428 28.5 2.14011
      vertex -67.7929 28.5 23.2733
      vertex -66.3599 28.5 24.5428
    endloop
  endfacet
  facet normal 0 1 0
    outer loop
      vertex -68.0428 28.5 2.14011
      vertex -66.3599 28.5 24.5428
      vertex -64.5051 28.5 25
    endloop
  endfacet
  facet normal 0 1 0
    outer loop
      vertex -57.625 28.5 14.0155
      vertex -64.5051 28.5 25
      vertex 0 28.5 25
    endloop
  endfacet
  facet normal 0 1 0
    outer loop
      vertex -37.625 28.5 10.9845
      vertex 0 28.5 25
      vertex 0 28.5 0
    endloop
  endfacet
  facet normal 0 1 0
    outer loop
      vertex -64.501 28.5 0.0867081
      vertex 0 28.5 0
      vertex -64.501 28.5 0
    endloop
  endfacet
  facet normal 0 1 0
    outer loop
      vertex -68.0428 28.5 2.14011
      vertex 0 28.5 0
      vertex -64.501 28.5 0.0867081
    endloop
  endfacet
  facet normal 0 1 0
    outer loop
      vertex -56.75 28.5 12.5
      vertex 0 28.5 25
      vertex -57.625 28.5 10.9845
    endloop
  endfacet
  facet normal 0 1 0
    outer loop
      vertex -68.0428 28.5 2.14011
      vertex -64.9831 28.5 0.028165
      vertex -66.7733 28.5 0.707065
    endloop
  endfacet
  facet normal 0 1 0
    outer loop
      vertex -68.0428 28.5 2.14011
      vertex -64.5051 28.5 25
      vertex -60.25 28.5 12.5
    endloop
  endfacet
  facet normal 0 1 0
    outer loop
      vertex -68.0428 28.5 2.14011
      vertex -60.25 28.5 12.5
      vertex -59.375 28.5 10.9845
    endloop
  endfacet
  facet normal 0 1 0
    outer loop
      vertex -68.0428 28.5 2.14011
      vertex -59.375 28.5 10.9845
      vertex -57.625 28.5 10.9845
    endloop
  endfacet
  facet normal 0 1 0
    outer loop
      vertex -39.375 28.5 14.0155
      vertex -57.625 28.5 10.9845
      vertex 0 28.5 25
    endloop
  endfacet
  facet normal 0 1 0
    outer loop
      vertex -57.625 28.5 14.0155
      vertex 0 28.5 25
      vertex -56.75 28.5 12.5
    endloop
  endfacet
  facet normal 0 1 0
    outer loop
      vertex -59.375 28.5 14.0155
      vertex -64.5051 28.5 25
      vertex -57.625 28.5 14.0155
    endloop
  endfacet
  facet normal 0 1 0
    outer loop
      vertex -40.25 28.5 12.5
      vertex -57.625 28.5 10.9845
      vertex -39.375 28.5 14.0155
    endloop
  endfacet
  facet normal 0 1 0
    outer loop
      vertex -60.25 28.5 12.5
      vertex -64.5051 28.5 25
      vertex -59.375 28.5 14.0155
    endloop
  endfacet
  facet normal 0 1 0
    outer loop
      vertex -68.0428 28.5 2.14011
      vertex -57.625 28.5 10.9845
      vertex -40.25 28.5 12.5
    endloop
  endfacet
  facet normal 0 1 0
    outer loop
      vertex -37.625 28.5 14.0155
      vertex 0 28.5 25
      vertex -36.75 28.5 12.5
    endloop
  endfacet
  facet normal 0 1 0
    outer loop
      vertex -68.0428 28.5 2.14011
      vertex -39.375 28.5 10.9845
      vertex 0 28.5 0
    endloop
  endfacet
  facet normal 0 1 0
    outer loop
      vertex -39.375 28.5 10.9845
      vertex -37.625 28.5 10.9845
      vertex 0 28.5 0
    endloop
  endfacet
  facet normal 0 1 0
    outer loop
      vertex -36.75 28.5 12.5
      vertex 0 28.5 25
      vertex -37.625 28.5 10.9845
    endloop
  endfacet
  facet normal 0 1 0
    outer loop
      vertex -39.375 28.5 10.9845
      vertex -68.0428 28.5 2.14011
      vertex -40.25 28.5 12.5
    endloop
  endfacet
  facet normal 0 1 0
    outer loop
      vertex -37.625 28.5 14.0155
      vertex -39.375 28.5 14.0155
      vertex 0 28.5 25
    endloop
  endfacet
  facet normal 0 1 0
    outer loop
      vertex -64.9831 28.5 0.028165
      vertex -68.0428 28.5 2.14011
      vertex -64.501 28.5 0.0867081
    endloop
  endfacet
  facet normal 2.22045e-16 0 1
    outer loop
      vertex -68.4133 21.5 21.001
      vertex -68.4133 28.5 21.001
      vertex -68.5 28.5 21.001
    endloop
  endfacet
  facet normal 2.22045e-16 0 1
    outer loop
      vertex -68.5 21.5 21.001
      vertex -68.4133 21.5 21.001
      vertex -68.5 28.5 21.001
    endloop
  endfacet
  facet normal -0.992709 2.20426e-16 -0.120536
    outer loop
      vertex -68.4718 21.5 21.4831
      vertex -68.4718 28.5 21.4831
      vertex -68.4133 21.5 21.001
    endloop
  endfacet
  facet normal -0.992709 2.20426e-16 -0.120536
    outer loop
      vertex -68.4133 21.5 21.001
      vertex -68.4718 28.5 21.4831
      vertex -68.4133 28.5 21.001
    endloop
  endfacet
  facet normal -0.935016 2.07615e-16 0.354605
    outer loop
      vertex -68.4718 21.5 21.4831
      vertex -67.7929 21.5 23.2733
      vertex -68.4718 28.5 21.4831
    endloop
  endfacet
  facet normal -0.935016 2.07615e-16 0.354605
    outer loop
      vertex -68.4718 28.5 21.4831
      vertex -67.7929 21.5 23.2733
      vertex -67.7929 28.5 23.2733
    endloop
  endfacet
  facet normal -0.663123 1.47243e-16 0.748511
    outer loop
      vertex -67.7929 28.5 23.2733
      vertex -67.7929 21.5 23.2733
      vertex -66.3599 21.5 24.5428
    endloop
  endfacet
  facet normal -0.663123 1.47243e-16 0.748511
    outer loop
      vertex -66.3599 28.5 24.5428
      vertex -67.7929 28.5 23.2733
      vertex -66.3599 21.5 24.5428
    endloop
  endfacet
  facet normal -0.239316 5.31388e-17 0.970942
    outer loop
      vertex -66.3599 28.5 24.5428
      vertex -66.3599 21.5 24.5428
      vertex -64.5051 21.5 25
    endloop
  endfacet
  facet normal -0.239316 5.31388e-17 0.970942
    outer loop
      vertex -64.5051 28.5 25
      vertex -66.3599 28.5 24.5428
      vertex -64.5051 21.5 25
    endloop
  endfacet
  facet normal 0 0 1
    outer loop
      vertex -11.75 20.3516 25
      vertex -7.2619 22.3498 25
      vertex -64.5051 28.5 25
    endloop
  endfacet
  facet normal 0 0 1
    outer loop
      vertex -64.5051 28.5 25
      vertex -64.5051 21.5 25
      vertex -33.5 21.5 25
    endloop
  endfacet
  facet normal 0 0 1
    outer loop
      vertex -31.5866 21.1194 25
      vertex -64.5051 28.5 25
      vertex -33.5 21.5 25
    endloop
  endfacet
  facet normal 0 0 1
    outer loop
      vertex 11.75 -20.3516 25
      vertex 7.2619 -22.3498 25
      vertex 14.25 -24.6817 25
    endloop
  endfacet
  facet normal 0 0 1
    outer loop
      vertex -28.5 16.5 25
      vertex -19.0702 -21.1796 25
      vertex -28.8806 18.4134 25
    endloop
  endfacet
  facet normal 0 0 1
    outer loop
      vertex -28.5 0 25
      vertex -27.8772 -5.92548 25
      vertex -28.5 16.5 25
    endloop
  endfacet
  facet normal 0 0 1
    outer loop
      vertex -27.8772 -5.92548 25
      vertex -26.036 -11.592 25
      vertex -28.5 16.5 25
    endloop
  endfacet
  facet normal 0 0 1
    outer loop
      vertex -26.036 -11.592 25
      vertex -23.057 -16.7519 25
      vertex -28.5 16.5 25
    endloop
  endfacet
  facet normal 0 0 1
    outer loop
      vertex -23.057 -16.7519 25
      vertex -19.0702 -21.1796 25
      vertex -28.5 16.5 25
    endloop
  endfacet
  facet normal 0 0 1
    outer loop
      vertex -11.75 -20.3516 25
      vertex -15.7246 -17.4639 25
      vertex -8.80698 -27.1051 25
    endloop
  endfacet
  facet normal 0 0 1
    outer loop
      vertex -21.4683 9.55831 25
      vertex -19.0119 13.813 25
      vertex -29.9645 20.0355 25
    endloop
  endfacet
  facet normal 0 0 1
    outer loop
      vertex -19.0119 13.813 25
      vertex -31.5866 21.1194 25
      vertex -29.9645 20.0355 25
    endloop
  endfacet
  facet normal 0 0 1
    outer loop
      vertex 7.2619 -22.3498 25
      vertex 2.45642 -23.3713 25
      vertex 8.80698 -27.1051 25
    endloop
  endfacet
  facet normal 0 0 1
    outer loop
      vertex 23.5 0 25
      vertex 22.9865 -4.88592 25
      vertex 27.8772 -5.92548 25
    endloop
  endfacet
  facet normal 0 0 1
    outer loop
      vertex -31.5866 21.1194 25
      vertex -11.75 20.3516 25
      vertex -64.5051 28.5 25
    endloop
  endfacet
  facet normal 0 0 1
    outer loop
      vertex -7.2619 22.3498 25
      vertex -2.45642 23.3713 25
      vertex -64.5051 28.5 25
    endloop
  endfacet
  facet normal 0 0 1
    outer loop
      vertex 11.75 20.3516 25
      vertex 15.7246 17.4639 25
      vertex 23.057 16.7519 25
    endloop
  endfacet
  facet normal 0 0 1
    outer loop
      vertex -2.45642 23.3713 25
      vertex 14.25 24.6817 25
      vertex -64.5051 28.5 25
    endloop
  endfacet
  facet normal 0 0 1
    outer loop
      vertex 14.25 24.6817 25
      vertex 8.80698 27.1051 25
      vertex -64.5051 28.5 25
    endloop
  endfacet
  facet normal 0 0 1
    outer loop
      vertex -23.5 0 25
      vertex -22.9865 4.88592 25
      vertex -28.8806 18.4134 25
    endloop
  endfacet
  facet normal 0 0 1
    outer loop
      vertex 8.80698 27.1051 25
      vertex 0 28.3439 25
      vertex -64.5051 28.5 25
    endloop
  endfacet
  facet normal 0 0 1
    outer loop
      vertex 8.80698 27.1051 25
      vertex 2.97906 28.3439 25
      vertex 0 28.3439 25
    endloop
  endfacet
  facet normal 0 0 1
    outer loop
      vertex -19.0119 -13.813 25
      vertex -21.4683 -9.55831 25
      vertex -14.25 -24.6817 25
    endloop
  endfacet
  facet normal 0 0 1
    outer loop
      vertex -19.0702 -21.1796 25
      vertex -22.9865 -4.88592 25
      vertex -28.8806 18.4134 25
    endloop
  endfacet
  facet normal 0 0 1
    outer loop
      vertex -22.9865 -4.88592 25
      vertex -23.5 0 25
      vertex -28.8806 18.4134 25
    endloop
  endfacet
  facet normal 0 0 1
    outer loop
      vertex 21.4683 9.55831 25
      vertex 22.9865 4.88592 25
      vertex 27.8772 5.92548 25
    endloop
  endfacet
  facet normal 0 0 1
    outer loop
      vertex 2.45642 23.3713 25
      vertex 14.25 24.6817 25
      vertex -2.45642 23.3713 25
    endloop
  endfacet
  facet normal 0 0 1
    outer loop
      vertex 7.2619 22.3498 25
      vertex 11.75 20.3516 25
      vertex 19.0702 21.1796 25
    endloop
  endfacet
  facet normal 0 0 1
    outer loop
      vertex 19.0702 21.1796 25
      vertex 14.25 24.6817 25
      vertex 2.45642 23.3713 25
    endloop
  endfacet
  facet normal 0 0 1
    outer loop
      vertex 2.45642 23.3713 25
      vertex 7.2619 22.3498 25
      vertex 19.0702 21.1796 25
    endloop
  endfacet
  facet normal 0 0 1
    outer loop
      vertex 19.0119 13.813 25
      vertex 21.4683 9.55831 25
      vertex 26.036 11.592 25
    endloop
  endfacet
  facet normal 0 0 1
    outer loop
      vertex 23.057 16.7519 25
      vertex 19.0702 21.1796 25
      vertex 11.75 20.3516 25
    endloop
  endfacet
  facet normal 0 0 1
    outer loop
      vertex 26.036 11.592 25
      vertex 23.057 16.7519 25
      vertex 15.7246 17.4639 25
    endloop
  endfacet
  facet normal 0 0 1
    outer loop
      vertex 22.9865 -4.88592 25
      vertex 21.4683 -9.55831 25
      vertex 26.036 -11.592 25
    endloop
  endfacet
  facet normal 0 0 1
    outer loop
      vertex 26.036 11.592 25
      vertex 15.7246 17.4639 25
      vertex 19.0119 13.813 25
    endloop
  endfacet
  facet normal 0 0 1
    outer loop
      vertex 22.9865 4.88592 25
      vertex 23.5 0 25
      vertex 28.5 0 25
    endloop
  endfacet
  facet normal 0 0 1
    outer loop
      vertex 27.8772 5.92548 25
      vertex 26.036 11.592 25
      vertex 21.4683 9.55831 25
    endloop
  endfacet
  facet normal 0 0 1
    outer loop
      vertex -15.7246 17.4639 25
      vertex -11.75 20.3516 25
      vertex -31.5866 21.1194 25
    endloop
  endfacet
  facet normal 0 0 1
    outer loop
      vertex 28.5 0 25
      vertex 27.8772 5.92548 25
      vertex 22.9865 4.88592 25
    endloop
  endfacet
  facet normal 0 0 1
    outer loop
      vertex 27.8772 -5.92548 25
      vertex 28.5 0 25
      vertex 23.5 0 25
    endloop
  endfacet
  facet normal 0 0 1
    outer loop
      vertex 26.036 -11.592 25
      vertex 27.8772 -5.92548 25
      vertex 22.9865 -4.88592 25
    endloop
  endfacet
  facet normal 0 0 1
    outer loop
      vertex 23.057 -16.7519 25
      vertex 26.036 -11.592 25
      vertex 21.4683 -9.55831 25
    endloop
  endfacet
  facet normal 0 0 1
    outer loop
      vertex 15.7246 -17.4639 25
      vertex 11.75 -20.3516 25
      vertex 19.0702 -21.1796 25
    endloop
  endfacet
  facet normal 0 0 1
    outer loop
      vertex 23.057 -16.7519 25
      vertex 21.4683 -9.55831 25
      vertex 19.0119 -13.813 25
    endloop
  endfacet
  facet normal 0 0 1
    outer loop
      vertex 19.0702 -21.1796 25
      vertex 23.057 -16.7519 25
      vertex 15.7246 -17.4639 25
    endloop
  endfacet
  facet normal 0 0 1
    outer loop
      vertex 14.25 -24.6817 25
      vertex 19.0702 -21.1796 25
      vertex 11.75 -20.3516 25
    endloop
  endfacet
  facet normal 0 0 1
    outer loop
      vertex 19.0119 -13.813 25
      vertex 15.7246 -17.4639 25
      vertex 23.057 -16.7519 25
    endloop
  endfacet
  facet normal 0 0 1
    outer loop
      vertex 8.80698 -27.1051 25
      vertex 14.25 -24.6817 25
      vertex 7.2619 -22.3498 25
    endloop
  endfacet
  facet normal 0 0 1
    outer loop
      vertex -2.45642 -23.3713 25
      vertex -7.2619 -22.3498 25
      vertex -2.97906 -28.3439 25
    endloop
  endfacet
  facet normal 0 0 1
    outer loop
      vertex 2.97906 -28.3439 25
      vertex 8.80698 -27.1051 25
      vertex 2.45642 -23.3713 25
    endloop
  endfacet
  facet normal 0 0 1
    outer loop
      vertex -2.97906 -28.3439 25
      vertex 2.97906 -28.3439 25
      vertex -2.45642 -23.3713 25
    endloop
  endfacet
  facet normal 0 0 1
    outer loop
      vertex -15.7246 -17.4639 25
      vertex -19.0119 -13.813 25
      vertex -14.25 -24.6817 25
    endloop
  endfacet
  facet normal 0 0 1
    outer loop
      vertex -8.80698 -27.1051 25
      vertex -2.97906 -28.3439 25
      vertex -7.2619 -22.3498 25
    endloop
  endfacet
  facet normal 0 0 1
    outer loop
      vertex 2.45642 -23.3713 25
      vertex -2.45642 -23.3713 25
      vertex 2.97906 -28.3439 25
    endloop
  endfacet
  facet normal 0 0 1
    outer loop
      vertex -8.80698 -27.1051 25
      vertex -7.2619 -22.3498 25
      vertex -11.75 -20.3516 25
    endloop
  endfacet
  facet normal 0 0 1
    outer loop
      vertex -14.25 -24.6817 25
      vertex -8.80698 -27.1051 25
      vertex -15.7246 -17.4639 25
    endloop
  endfacet
  facet normal 0 0 1
    outer loop
      vertex -19.0702 -21.1796 25
      vertex -21.4683 -9.55831 25
      vertex -22.9865 -4.88592 25
    endloop
  endfacet
  facet normal 0 0 1
    outer loop
      vertex -19.0702 -21.1796 25
      vertex -14.25 -24.6817 25
      vertex -21.4683 -9.55831 25
    endloop
  endfacet
  facet normal 0 0 1
    outer loop
      vertex 0 28.3439 25
      vertex 0 28.5 25
      vertex -64.5051 28.5 25
    endloop
  endfacet
  facet normal 0 0 1
    outer loop
      vertex -28.8806 18.4134 25
      vertex -21.4683 9.55831 25
      vertex -29.9645 20.0355 25
    endloop
  endfacet
  facet normal 0 0 1
    outer loop
      vertex -22.9865 4.88592 25
      vertex -21.4683 9.55831 25
      vertex -28.8806 18.4134 25
    endloop
  endfacet
  facet normal 0 0 1
    outer loop
      vertex -19.0119 13.813 25
      vertex -15.7246 17.4639 25
      vertex -31.5866 21.1194 25
    endloop
  endfacet
  facet normal -0.19509 -0.980785 0
    outer loop
      vertex -31.5866 21.1194 0
      vertex -31.5866 21.1194 25
      vertex -33.5 21.5 25
    endloop
  endfacet
  facet normal -0.19509 -0.980785 0
    outer loop
      vertex -33.5 21.5 0
      vertex -31.5866 21.1194 0
      vertex -33.5 21.5 25
    endloop
  endfacet
  facet normal 0 0 -1
    outer loop
      vertex -64.501 21.5 0
      vertex -64.501 28.5 0
      vertex -33.5 21.5 0
    endloop
  endfacet
  facet normal 0 0 -1
    outer loop
      vertex -33.5 21.5 0
      vertex -64.501 28.5 0
      vertex 0 28.5 0
    endloop
  endfacet
  facet normal 0 0 -1
    outer loop
      vertex -33.5 21.5 0
      vertex 0 28.5 0
      vertex 0 28.3439 0
    endloop
  endfacet
  facet normal 0 0 -1
    outer loop
      vertex -33.5 21.5 0
      vertex 0 28.3439 0
      vertex 2.97906 28.3439 0
    endloop
  endfacet
  facet normal 0 0 -1
    outer loop
      vertex -33.5 21.5 0
      vertex 2.97906 28.3439 0
      vertex 8.80698 27.1051 0
    endloop
  endfacet
  facet normal 0 0 -1
    outer loop
      vertex -33.5 21.5 0
      vertex 8.80698 27.1051 0
      vertex 14.25 24.6817 0
    endloop
  endfacet
  facet normal 0 0 -1
    outer loop
      vertex 7.2619 22.3498 0
      vertex 14.25 24.6817 0
      vertex 19.0702 21.1796 0
    endloop
  endfacet
  facet normal 0 0 -1
    outer loop
      vertex -26.036 -11.592 0
      vertex -8.80698 -27.1051 0
      vertex -14.25 -24.6817 0
    endloop
  endfacet
  facet normal 0 0 -1
    outer loop
      vertex -22.9865 -4.88592 0
      vertex -28.5 0 0
      vertex -23.5 0 0
    endloop
  endfacet
  facet normal 0 0 -1
    outer loop
      vertex -11.75 20.3516 0
      vertex -29.9645 20.0355 0
      vertex -31.5866 21.1194 0
    endloop
  endfacet
  facet normal 0 0 -1
    outer loop
      vertex -15.7246 17.4639 0
      vertex -28.8806 18.4134 0
      vertex -29.9645 20.0355 0
    endloop
  endfacet
  facet normal 0 0 -1
    outer loop
      vertex 21.4683 9.55831 0
      vertex 27.8772 5.92548 0
      vertex 22.9865 4.88592 0
    endloop
  endfacet
  facet normal 0 0 -1
    outer loop
      vertex -15.7246 -17.4639 0
      vertex -2.97906 -28.3439 0
      vertex -26.036 -11.592 0
    endloop
  endfacet
  facet normal 0 0 -1
    outer loop
      vertex -27.8772 -5.92548 0
      vertex -15.7246 -17.4639 0
      vertex -26.036 -11.592 0
    endloop
  endfacet
  facet normal 0 0 -1
    outer loop
      vertex -14.25 -24.6817 0
      vertex -19.0702 -21.1796 0
      vertex -23.057 -16.7519 0
    endloop
  endfacet
  facet normal 0 0 -1
    outer loop
      vertex -2.97906 -28.3439 0
      vertex -8.80698 -27.1051 0
      vertex -26.036 -11.592 0
    endloop
  endfacet
  facet normal 0 0 -1
    outer loop
      vertex -28.5 0 0
      vertex -22.9865 -4.88592 0
      vertex -21.4683 -9.55831 0
    endloop
  endfacet
  facet normal 0 0 -1
    outer loop
      vertex 19.0119 13.813 0
      vertex 26.036 11.592 0
      vertex 21.4683 9.55831 0
    endloop
  endfacet
  facet normal 0 0 -1
    outer loop
      vertex 15.7246 17.4639 0
      vertex 23.057 16.7519 0
      vertex 19.0119 13.813 0
    endloop
  endfacet
  facet normal 0 0 -1
    outer loop
      vertex 7.2619 22.3498 0
      vertex 19.0702 21.1796 0
      vertex 11.75 20.3516 0
    endloop
  endfacet
  facet normal 0 0 -1
    outer loop
      vertex -26.036 -11.592 0
      vertex -14.25 -24.6817 0
      vertex -23.057 -16.7519 0
    endloop
  endfacet
  facet normal 0 0 -1
    outer loop
      vertex 15.7246 -17.4639 0
      vertex 19.0702 -21.1796 0
      vertex 11.75 -20.3516 0
    endloop
  endfacet
  facet normal 0 0 -1
    outer loop
      vertex -19.0119 -13.813 0
      vertex -27.8772 -5.92548 0
      vertex -21.4683 -9.55831 0
    endloop
  endfacet
  facet normal 0 0 -1
    outer loop
      vertex 2.45642 -23.3713 0
      vertex 8.80698 -27.1051 0
      vertex -2.45642 -23.3713 0
    endloop
  endfacet
  facet normal 0 0 -1
    outer loop
      vertex -2.45642 -23.3713 0
      vertex 2.97906 -28.3439 0
      vertex -7.2619 -22.3498 0
    endloop
  endfacet
  facet normal 0 0 -1
    outer loop
      vertex -15.7246 -17.4639 0
      vertex -27.8772 -5.92548 0
      vertex -19.0119 -13.813 0
    endloop
  endfacet
  facet normal 0 0 -1
    outer loop
      vertex -11.75 -20.3516 0
      vertex -2.97906 -28.3439 0
      vertex -15.7246 -17.4639 0
    endloop
  endfacet
  facet normal 0 0 -1
    outer loop
      vertex 2.97906 -28.3439 0
      vertex -2.97906 -28.3439 0
      vertex -11.75 -20.3516 0
    endloop
  endfacet
  facet normal 0 0 -1
    outer loop
      vertex 2.97906 -28.3439 0
      vertex -11.75 -20.3516 0
      vertex -7.2619 -22.3498 0
    endloop
  endfacet
  facet normal 0 0 -1
    outer loop
      vertex 8.80698 -27.1051 0
      vertex 2.97906 -28.3439 0
      vertex -2.45642 -23.3713 0
    endloop
  endfacet
  facet normal 0 0 -1
    outer loop
      vertex 7.2619 -22.3498 0
      vertex 8.80698 -27.1051 0
      vertex 2.45642 -23.3713 0
    endloop
  endfacet
  facet normal 0 0 -1
    outer loop
      vertex -21.4683 9.55831 0
      vertex -28.5 16.5 0
      vertex -19.0119 13.813 0
    endloop
  endfacet
  facet normal 0 0 -1
    outer loop
      vertex 14.25 -24.6817 0
      vertex 8.80698 -27.1051 0
      vertex 7.2619 -22.3498 0
    endloop
  endfacet
  facet normal 0 0 -1
    outer loop
      vertex 19.0702 -21.1796 0
      vertex 14.25 -24.6817 0
      vertex 11.75 -20.3516 0
    endloop
  endfacet
  facet normal 0 0 -1
    outer loop
      vertex 23.057 -16.7519 0
      vertex 19.0702 -21.1796 0
      vertex 15.7246 -17.4639 0
    endloop
  endfacet
  facet normal 0 0 -1
    outer loop
      vertex 26.036 -11.592 0
      vertex 23.057 -16.7519 0
      vertex 19.0119 -13.813 0
    endloop
  endfacet
  facet normal 0 0 -1
    outer loop
      vertex 27.8772 -5.92548 0
      vertex 26.036 -11.592 0
      vertex 21.4683 -9.55831 0
    endloop
  endfacet
  facet normal 0 0 -1
    outer loop
      vertex 27.8772 -5.92548 0
      vertex 21.4683 -9.55831 0
      vertex 22.9865 -4.88592 0
    endloop
  endfacet
  facet normal 0 0 -1
    outer loop
      vertex 28.5 0 0
      vertex 27.8772 -5.92548 0
      vertex 23.5 0 0
    endloop
  endfacet
  facet normal 0 0 -1
    outer loop
      vertex 27.8772 5.92548 0
      vertex 28.5 0 0
      vertex 22.9865 4.88592 0
    endloop
  endfacet
  facet normal 0 0 -1
    outer loop
      vertex 11.75 -20.3516 0
      vertex 14.25 -24.6817 0
      vertex 7.2619 -22.3498 0
    endloop
  endfacet
  facet normal 0 0 -1
    outer loop
      vertex 26.036 11.592 0
      vertex 27.8772 5.92548 0
      vertex 21.4683 9.55831 0
    endloop
  endfacet
  facet normal 0 0 -1
    outer loop
      vertex -19.0119 13.813 0
      vertex -28.5 16.5 0
      vertex -28.8806 18.4134 0
    endloop
  endfacet
  facet normal 0 0 -1
    outer loop
      vertex 23.057 16.7519 0
      vertex 26.036 11.592 0
      vertex 19.0119 13.813 0
    endloop
  endfacet
  facet normal 0 0 -1
    outer loop
      vertex 19.0702 21.1796 0
      vertex 23.057 16.7519 0
      vertex 15.7246 17.4639 0
    endloop
  endfacet
  facet normal 0 0 -1
    outer loop
      vertex 19.0702 21.1796 0
      vertex 15.7246 17.4639 0
      vertex 11.75 20.3516 0
    endloop
  endfacet
  facet normal 0 0 -1
    outer loop
      vertex 2.45642 23.3713 0
      vertex 14.25 24.6817 0
      vertex 7.2619 22.3498 0
    endloop
  endfacet
  facet normal 0 0 -1
    outer loop
      vertex -7.2619 22.3498 0
      vertex -33.5 21.5 0
      vertex -2.45642 23.3713 0
    endloop
  endfacet
  facet normal 0 0 -1
    outer loop
      vertex -2.45642 23.3713 0
      vertex 14.25 24.6817 0
      vertex 2.45642 23.3713 0
    endloop
  endfacet
  facet normal 0 0 -1
    outer loop
      vertex -33.5 21.5 0
      vertex 14.25 24.6817 0
      vertex -2.45642 23.3713 0
    endloop
  endfacet
  facet normal 0 0 -1
    outer loop
      vertex -11.75 20.3516 0
      vertex -33.5 21.5 0
      vertex -7.2619 22.3498 0
    endloop
  endfacet
  facet normal 0 0 -1
    outer loop
      vertex -11.75 20.3516 0
      vertex -31.5866 21.1194 0
      vertex -33.5 21.5 0
    endloop
  endfacet
  facet normal 0 0 -1
    outer loop
      vertex -15.7246 17.4639 0
      vertex -29.9645 20.0355 0
      vertex -11.75 20.3516 0
    endloop
  endfacet
  facet normal 0 0 -1
    outer loop
      vertex 22.9865 4.88592 0
      vertex 28.5 0 0
      vertex 23.5 0 0
    endloop
  endfacet
  facet normal 0 0 -1
    outer loop
      vertex -28.5 0 0
      vertex -21.4683 -9.55831 0
      vertex -27.8772 -5.92548 0
    endloop
  endfacet
  facet normal 0 0 -1
    outer loop
      vertex 23.5 0 0
      vertex 27.8772 -5.92548 0
      vertex 22.9865 -4.88592 0
    endloop
  endfacet
  facet normal 0 0 -1
    outer loop
      vertex -28.5 16.5 0
      vertex -21.4683 9.55831 0
      vertex -22.9865 4.88592 0
    endloop
  endfacet
  facet normal 0 0 -1
    outer loop
      vertex 21.4683 -9.55831 0
      vertex 26.036 -11.592 0
      vertex 19.0119 -13.813 0
    endloop
  endfacet
  facet normal 0 0 -1
    outer loop
      vertex 19.0119 -13.813 0
      vertex 23.057 -16.7519 0
      vertex 15.7246 -17.4639 0
    endloop
  endfacet
  facet normal 0 0 -1
    outer loop
      vertex -28.5 16.5 0
      vertex -22.9865 4.88592 0
      vertex -23.5 0 0
    endloop
  endfacet
  facet normal 0 0 -1
    outer loop
      vertex -19.0119 13.813 0
      vertex -28.8806 18.4134 0
      vertex -15.7246 17.4639 0
    endloop
  endfacet
  facet normal 0 0 -1
    outer loop
      vertex -28.5 16.5 0
      vertex -23.5 0 0
      vertex -28.5 0 0
    endloop
  endfacet
  facet normal -1 0 4.44089e-16
    outer loop
      vertex -64.501 28.5 0.0867081
      vertex -64.501 28.5 0
      vertex -64.501 21.5 0.0867081
    endloop
  endfacet
  facet normal -1 0 4.44089e-16
    outer loop
      vertex -64.501 21.5 0.0867081
      vertex -64.501 28.5 0
      vertex -64.501 21.5 0
    endloop
  endfacet
  facet normal 0.120536 2.20426e-16 -0.992709
    outer loop
      vertex -64.9831 21.5 0.028165
      vertex -64.9831 28.5 0.028165
      vertex -64.501 21.5 0.0867081
    endloop
  endfacet
  facet normal 0.120536 2.20426e-16 -0.992709
    outer loop
      vertex -64.501 21.5 0.0867081
      vertex -64.9831 28.5 0.028165
      vertex -64.501 28.5 0.0867081
    endloop
  endfacet
  facet normal -0.354605 2.07615e-16 -0.935016
    outer loop
      vertex -66.7733 21.5 0.707065
      vertex -66.7733 28.5 0.707065
      vertex -64.9831 21.5 0.028165
    endloop
  endfacet
  facet normal -0.354605 2.07615e-16 -0.935016
    outer loop
      vertex -64.9831 21.5 0.028165
      vertex -66.7733 28.5 0.707065
      vertex -64.9831 28.5 0.028165
    endloop
  endfacet
  facet normal -0.748511 1.47243e-16 -0.663123
    outer loop
      vertex -68.0428 21.5 2.14011
      vertex -68.0428 28.5 2.14011
      vertex -66.7733 21.5 0.707065
    endloop
  endfacet
  facet normal -0.748511 1.47243e-16 -0.663123
    outer loop
      vertex -66.7733 21.5 0.707065
      vertex -68.0428 28.5 2.14011
      vertex -66.7733 28.5 0.707065
    endloop
  endfacet
  facet normal 0.872616 -0.488407 1.08448e-16
    outer loop
      vertex -61.2985 21.5 11.6783
      vertex -60.1791 23.5 12.007
      vertex -60.1791 23.5 12.3772
    endloop
  endfacet
  facet normal 0.872616 -0.488407 1.08448e-16
    outer loop
      vertex -60.1791 23.5 12.993
      vertex -61.2985 21.5 11.6783
      vertex -60.1791 23.5 12.6228
    endloop
  endfacet
  facet normal 0.872616 -0.488407 1.08448e-16
    outer loop
      vertex -60.1791 23.5 12.6228
      vertex -61.2985 21.5 11.6783
      vertex -60.1791 23.5 12.3772
    endloop
  endfacet
  facet normal 0.872616 -0.488407 1.08448e-16
    outer loop
      vertex -61.2985 21.5 13.3217
      vertex -61.2985 21.5 11.6783
      vertex -60.1791 23.5 12.993
    endloop
  endfacet
  facet normal 0.734091 -0.488407 0.471772
    outer loop
      vertex -61.1208 21.5 11.4018
      vertex -59.646 23.5 11.1774
      vertex -60.1791 23.5 12.007
    endloop
  endfacet
  facet normal 0.734091 -0.488407 0.471772
    outer loop
      vertex -61.2985 21.5 11.6783
      vertex -61.1208 21.5 11.4018
      vertex -60.1791 23.5 12.007
    endloop
  endfacet
  facet normal 0.734091 -0.488407 0.471771
    outer loop
      vertex -60.41 21.5 10.2957
      vertex -59.646 23.5 11.1774
      vertex -61.1208 21.5 11.4018
    endloop
  endfacet
  facet normal 0.362498 -0.488407 0.793759
    outer loop
      vertex -60.111 21.5 10.1592
      vertex -58.7491 23.5 10.7678
      vertex -59.2234 23.5 10.9845
    endloop
  endfacet
  facet normal 0.362498 -0.488407 0.793759
    outer loop
      vertex -59.646 23.5 11.1774
      vertex -60.111 21.5 10.1592
      vertex -59.4293 23.5 11.0785
    endloop
  endfacet
  facet normal 0.362498 -0.488407 0.793759
    outer loop
      vertex -59.4293 23.5 11.0785
      vertex -60.111 21.5 10.1592
      vertex -59.2234 23.5 10.9845
    endloop
  endfacet
  facet normal 0.362498 -0.488407 0.793759
    outer loop
      vertex -60.41 21.5 10.2957
      vertex -60.111 21.5 10.1592
      vertex -59.646 23.5 11.1774
    endloop
  endfacet
  facet normal 0.362498 -0.488407 0.79376
    outer loop
      vertex -58.9151 21.5 9.61302
      vertex -58.7491 23.5 10.7678
      vertex -60.111 21.5 10.1592
    endloop
  endfacet
  facet normal -0.124187 -0.488407 0.863734
    outer loop
      vertex -58.5897 21.5 9.6598
      vertex -57.773 23.5 10.9081
      vertex -58.7491 23.5 10.7678
    endloop
  endfacet
  facet normal -0.124187 -0.488407 0.863734
    outer loop
      vertex -58.9151 21.5 9.61302
      vertex -58.5897 21.5 9.6598
      vertex -58.7491 23.5 10.7678
    endloop
  endfacet
  facet normal -0.124186 -0.488407 0.863734
    outer loop
      vertex -57.2884 21.5 9.84691
      vertex -57.773 23.5 10.9081
      vertex -58.5897 21.5 9.6598
    endloop
  endfacet
  facet normal -0.571442 -0.488407 0.659479
    outer loop
      vertex -57.2884 21.5 9.84691
      vertex -57.04 21.5 10.0622
      vertex -57.0278 23.5 11.5539
    endloop
  endfacet
  facet normal -0.571442 -0.488407 0.659479
    outer loop
      vertex -57.685 23.5 10.9845
      vertex -57.2884 21.5 9.84691
      vertex -57.565 23.5 11.0884
    endloop
  endfacet
  facet normal -0.571442 -0.488407 0.659479
    outer loop
      vertex -57.565 23.5 11.0884
      vertex -57.2884 21.5 9.84691
      vertex -57.0278 23.5 11.5539
    endloop
  endfacet
  facet normal -0.571442 -0.488407 0.659479
    outer loop
      vertex -57.773 23.5 10.9081
      vertex -57.2884 21.5 9.84691
      vertex -57.685 23.5 10.9845
    endloop
  endfacet
  facet normal -0.571442 -0.488407 0.659479
    outer loop
      vertex -56.0463 21.5 10.9231
      vertex -57.0278 23.5 11.5539
      vertex -57.04 21.5 10.0622
    endloop
  endfacet
  facet normal -0.837269 -0.488407 0.245844
    outer loop
      vertex -55.9537 21.5 11.2385
      vertex -56.75 23.5 12.5
      vertex -56.0463 21.5 10.9231
    endloop
  endfacet
  facet normal -0.837269 -0.488407 0.245844
    outer loop
      vertex -56.0463 21.5 10.9231
      vertex -56.75 23.5 12.5
      vertex -57.0278 23.5 11.5539
    endloop
  endfacet
  facet normal -0.837269 -0.488407 0.245844
    outer loop
      vertex -55.9537 21.5 11.2385
      vertex -55.5833 21.5 12.5
      vertex -56.75 23.5 12.5
    endloop
  endfacet
  facet normal -0.837269 -0.488407 -0.245844
    outer loop
      vertex -55.5833 21.5 12.5
      vertex -55.6759 21.5 12.8154
      vertex -56.75 23.5 12.5
    endloop
  endfacet
  facet normal -0.837269 -0.488407 -0.245844
    outer loop
      vertex -56.75 23.5 12.5
      vertex -55.6759 21.5 12.8154
      vertex -57.0278 23.5 13.4461
    endloop
  endfacet
  facet normal -0.837269 -0.488407 -0.245844
    outer loop
      vertex -55.6759 21.5 12.8154
      vertex -56.0463 21.5 14.0769
      vertex -57.0278 23.5 13.4461
    endloop
  endfacet
  facet normal -0.571442 -0.488407 -0.659479
    outer loop
      vertex -57.0278 23.5 13.4461
      vertex -56.0463 21.5 14.0769
      vertex -57.565 23.5 13.9116
    endloop
  endfacet
  facet normal -0.571442 -0.488407 -0.659479
    outer loop
      vertex -57.565 23.5 13.9116
      vertex -56.0463 21.5 14.0769
      vertex -57.685 23.5 14.0155
    endloop
  endfacet
  facet normal -0.571442 -0.488407 -0.659479
    outer loop
      vertex -57.685 23.5 14.0155
      vertex -56.0463 21.5 14.0769
      vertex -56.2947 21.5 14.2921
    endloop
  endfacet
  facet normal -0.571442 -0.488407 -0.659479
    outer loop
      vertex -57.685 23.5 14.0155
      vertex -56.2947 21.5 14.2921
      vertex -57.773 23.5 14.0919
    endloop
  endfacet
  facet normal -0.571442 -0.488407 -0.659479
    outer loop
      vertex -56.2947 21.5 14.2921
      vertex -57.2884 21.5 15.1531
      vertex -57.773 23.5 14.0919
    endloop
  endfacet
  facet normal -0.124187 -0.488407 -0.863734
    outer loop
      vertex -57.2884 21.5 15.1531
      vertex -57.6137 21.5 15.1999
      vertex -57.773 23.5 14.0919
    endloop
  endfacet
  facet normal -0.124187 -0.488407 -0.863734
    outer loop
      vertex -57.773 23.5 14.0919
      vertex -57.6137 21.5 15.1999
      vertex -58.7491 23.5 14.2322
    endloop
  endfacet
  facet normal -0.124186 -0.488407 -0.863734
    outer loop
      vertex -58.7491 23.5 14.2322
      vertex -57.6137 21.5 15.1999
      vertex -58.9151 21.5 15.387
    endloop
  endfacet
  facet normal 0.362498 -0.488407 -0.793759
    outer loop
      vertex -58.7491 23.5 14.2322
      vertex -58.9151 21.5 15.387
      vertex -59.2234 23.5 14.0155
    endloop
  endfacet
  facet normal 0.362498 -0.488407 -0.793759
    outer loop
      vertex -59.2234 23.5 14.0155
      vertex -58.9151 21.5 15.387
      vertex -59.4293 23.5 13.9215
    endloop
  endfacet
  facet normal 0.362498 -0.488407 -0.793759
    outer loop
      vertex -59.4293 23.5 13.9215
      vertex -58.9151 21.5 15.387
      vertex -59.2141 21.5 15.2504
    endloop
  endfacet
  facet normal 0.362498 -0.488407 -0.793759
    outer loop
      vertex -59.4293 23.5 13.9215
      vertex -59.2141 21.5 15.2504
      vertex -59.646 23.5 13.8226
    endloop
  endfacet
  facet normal 0.362498 -0.488407 -0.79376
    outer loop
      vertex -59.646 23.5 13.8226
      vertex -59.2141 21.5 15.2504
      vertex -60.41 21.5 14.7043
    endloop
  endfacet
  facet normal 0.734091 -0.488407 -0.471772
    outer loop
      vertex -60.1791 23.5 12.993
      vertex -59.646 23.5 13.8226
      vertex -60.41 21.5 14.7043
    endloop
  endfacet
  facet normal 0.734091 -0.488407 -0.471772
    outer loop
      vertex -60.5877 21.5 14.4278
      vertex -60.1791 23.5 12.993
      vertex -60.41 21.5 14.7043
    endloop
  endfacet
  facet normal 0.734092 -0.488407 -0.471772
    outer loop
      vertex -60.1791 23.5 12.993
      vertex -60.5877 21.5 14.4278
      vertex -61.2985 21.5 13.3217
    endloop
  endfacet
  facet normal 0.872616 -0.488407 1.08448e-16
    outer loop
      vertex -41.2985 21.5 11.6783
      vertex -40.1791 23.5 12.007
      vertex -40.1791 23.5 12.3772
    endloop
  endfacet
  facet normal 0.872616 -0.488407 1.08448e-16
    outer loop
      vertex -40.1791 23.5 12.993
      vertex -41.2985 21.5 11.6783
      vertex -40.1791 23.5 12.6228
    endloop
  endfacet
  facet normal 0.872616 -0.488407 1.08448e-16
    outer loop
      vertex -40.1791 23.5 12.6228
      vertex -41.2985 21.5 11.6783
      vertex -40.1791 23.5 12.3772
    endloop
  endfacet
  facet normal 0.872616 -0.488407 1.08448e-16
    outer loop
      vertex -41.2985 21.5 13.3217
      vertex -41.2985 21.5 11.6783
      vertex -40.1791 23.5 12.993
    endloop
  endfacet
  facet normal 0.734091 -0.488407 0.471772
    outer loop
      vertex -41.1208 21.5 11.4018
      vertex -39.646 23.5 11.1774
      vertex -40.1791 23.5 12.007
    endloop
  endfacet
  facet normal 0.734091 -0.488407 0.471772
    outer loop
      vertex -41.2985 21.5 11.6783
      vertex -41.1208 21.5 11.4018
      vertex -40.1791 23.5 12.007
    endloop
  endfacet
  facet normal 0.734091 -0.488407 0.471771
    outer loop
      vertex -40.41 21.5 10.2957
      vertex -39.646 23.5 11.1774
      vertex -41.1208 21.5 11.4018
    endloop
  endfacet
  facet normal 0.362498 -0.488407 0.793759
    outer loop
      vertex -40.111 21.5 10.1592
      vertex -38.7491 23.5 10.7678
      vertex -39.2234 23.5 10.9845
    endloop
  endfacet
  facet normal 0.362498 -0.488407 0.793759
    outer loop
      vertex -39.646 23.5 11.1774
      vertex -40.111 21.5 10.1592
      vertex -39.4293 23.5 11.0785
    endloop
  endfacet
  facet normal 0.362498 -0.488407 0.793759
    outer loop
      vertex -39.4293 23.5 11.0785
      vertex -40.111 21.5 10.1592
      vertex -39.2234 23.5 10.9845
    endloop
  endfacet
  facet normal 0.362498 -0.488407 0.793759
    outer loop
      vertex -40.41 21.5 10.2957
      vertex -40.111 21.5 10.1592
      vertex -39.646 23.5 11.1774
    endloop
  endfacet
  facet normal 0.362498 -0.488407 0.79376
    outer loop
      vertex -38.9151 21.5 9.61302
      vertex -38.7491 23.5 10.7678
      vertex -40.111 21.5 10.1592
    endloop
  endfacet
  facet normal -0.124187 -0.488407 0.863734
    outer loop
      vertex -38.5897 21.5 9.6598
      vertex -37.773 23.5 10.9081
      vertex -38.7491 23.5 10.7678
    endloop
  endfacet
  facet normal -0.124187 -0.488407 0.863734
    outer loop
      vertex -38.9151 21.5 9.61302
      vertex -38.5897 21.5 9.6598
      vertex -38.7491 23.5 10.7678
    endloop
  endfacet
  facet normal -0.124186 -0.488407 0.863734
    outer loop
      vertex -37.2884 21.5 9.84691
      vertex -37.773 23.5 10.9081
      vertex -38.5897 21.5 9.6598
    endloop
  endfacet
  facet normal -0.571442 -0.488407 0.659479
    outer loop
      vertex -37.2884 21.5 9.84691
      vertex -37.04 21.5 10.0622
      vertex -37.0278 23.5 11.5539
    endloop
  endfacet
  facet normal -0.571442 -0.488407 0.659479
    outer loop
      vertex -37.685 23.5 10.9845
      vertex -37.2884 21.5 9.84691
      vertex -37.565 23.5 11.0884
    endloop
  endfacet
  facet normal -0.571442 -0.488407 0.659479
    outer loop
      vertex -37.565 23.5 11.0884
      vertex -37.2884 21.5 9.84691
      vertex -37.0278 23.5 11.5539
    endloop
  endfacet
  facet normal -0.571442 -0.488407 0.659479
    outer loop
      vertex -37.773 23.5 10.9081
      vertex -37.2884 21.5 9.84691
      vertex -37.685 23.5 10.9845
    endloop
  endfacet
  facet normal -0.571442 -0.488407 0.659479
    outer loop
      vertex -36.0463 21.5 10.9231
      vertex -37.0278 23.5 11.5539
      vertex -37.04 21.5 10.0622
    endloop
  endfacet
  facet normal -0.837269 -0.488407 0.245844
    outer loop
      vertex -35.9537 21.5 11.2385
      vertex -36.75 23.5 12.5
      vertex -36.0463 21.5 10.9231
    endloop
  endfacet
  facet normal -0.837269 -0.488407 0.245844
    outer loop
      vertex -36.0463 21.5 10.9231
      vertex -36.75 23.5 12.5
      vertex -37.0278 23.5 11.5539
    endloop
  endfacet
  facet normal -0.837269 -0.488407 0.245844
    outer loop
      vertex -35.9537 21.5 11.2385
      vertex -35.5833 21.5 12.5
      vertex -36.75 23.5 12.5
    endloop
  endfacet
  facet normal -0.837269 -0.488407 -0.245844
    outer loop
      vertex -35.5833 21.5 12.5
      vertex -35.6759 21.5 12.8154
      vertex -36.75 23.5 12.5
    endloop
  endfacet
  facet normal -0.837269 -0.488407 -0.245844
    outer loop
      vertex -36.75 23.5 12.5
      vertex -35.6759 21.5 12.8154
      vertex -37.0278 23.5 13.4461
    endloop
  endfacet
  facet normal -0.837269 -0.488407 -0.245844
    outer loop
      vertex -35.6759 21.5 12.8154
      vertex -36.0463 21.5 14.0769
      vertex -37.0278 23.5 13.4461
    endloop
  endfacet
  facet normal -0.571442 -0.488407 -0.659479
    outer loop
      vertex -37.0278 23.5 13.4461
      vertex -36.0463 21.5 14.0769
      vertex -37.565 23.5 13.9116
    endloop
  endfacet
  facet normal -0.571442 -0.488407 -0.659479
    outer loop
      vertex -37.565 23.5 13.9116
      vertex -36.0463 21.5 14.0769
      vertex -37.685 23.5 14.0155
    endloop
  endfacet
  facet normal -0.571442 -0.488407 -0.659479
    outer loop
      vertex -37.685 23.5 14.0155
      vertex -36.0463 21.5 14.0769
      vertex -36.2947 21.5 14.2921
    endloop
  endfacet
  facet normal -0.571442 -0.488407 -0.659479
    outer loop
      vertex -37.685 23.5 14.0155
      vertex -36.2947 21.5 14.2921
      vertex -37.773 23.5 14.0919
    endloop
  endfacet
  facet normal -0.571442 -0.488407 -0.659479
    outer loop
      vertex -36.2947 21.5 14.2921
      vertex -37.2884 21.5 15.1531
      vertex -37.773 23.5 14.0919
    endloop
  endfacet
  facet normal -0.124187 -0.488407 -0.863734
    outer loop
      vertex -37.2884 21.5 15.1531
      vertex -37.6137 21.5 15.1999
      vertex -37.773 23.5 14.0919
    endloop
  endfacet
  facet normal -0.124187 -0.488407 -0.863734
    outer loop
      vertex -37.773 23.5 14.0919
      vertex -37.6137 21.5 15.1999
      vertex -38.7491 23.5 14.2322
    endloop
  endfacet
  facet normal -0.124186 -0.488407 -0.863734
    outer loop
      vertex -38.7491 23.5 14.2322
      vertex -37.6137 21.5 15.1999
      vertex -38.9151 21.5 15.387
    endloop
  endfacet
  facet normal 0.362498 -0.488407 -0.793759
    outer loop
      vertex -38.7491 23.5 14.2322
      vertex -38.9151 21.5 15.387
      vertex -39.2234 23.5 14.0155
    endloop
  endfacet
  facet normal 0.362498 -0.488407 -0.793759
    outer loop
      vertex -39.2234 23.5 14.0155
      vertex -38.9151 21.5 15.387
      vertex -39.4293 23.5 13.9215
    endloop
  endfacet
  facet normal 0.362498 -0.488407 -0.793759
    outer loop
      vertex -39.4293 23.5 13.9215
      vertex -38.9151 21.5 15.387
      vertex -39.2141 21.5 15.2504
    endloop
  endfacet
  facet normal 0.362498 -0.488407 -0.793759
    outer loop
      vertex -39.4293 23.5 13.9215
      vertex -39.2141 21.5 15.2504
      vertex -39.646 23.5 13.8226
    endloop
  endfacet
  facet normal 0.362498 -0.488407 -0.79376
    outer loop
      vertex -39.646 23.5 13.8226
      vertex -39.2141 21.5 15.2504
      vertex -40.41 21.5 14.7043
    endloop
  endfacet
  facet normal 0.734091 -0.488407 -0.471772
    outer loop
      vertex -40.1791 23.5 12.993
      vertex -39.646 23.5 13.8226
      vertex -40.41 21.5 14.7043
    endloop
  endfacet
  facet normal 0.734091 -0.488407 -0.471772
    outer loop
      vertex -40.5877 21.5 14.4278
      vertex -40.1791 23.5 12.993
      vertex -40.41 21.5 14.7043
    endloop
  endfacet
  facet normal 0.734092 -0.488407 -0.471772
    outer loop
      vertex -40.1791 23.5 12.993
      vertex -40.5877 21.5 14.4278
      vertex -41.2985 21.5 13.3217
    endloop
  endfacet
  facet normal 1 0 0
    outer loop
      vertex 0 28.3439 25
      vertex 0 28.3439 0
      vertex 0 28.5 0
    endloop
  endfacet
  facet normal 1 0 0
    outer loop
      vertex 0 28.5 25
      vertex 0 28.3439 25
      vertex 0 28.5 0
    endloop
  endfacet
  facet normal 0.866025 -1.11022e-16 -0.5
    outer loop
      vertex -60.25 28.5 12.5
      vertex -59.375 28.5 14.0155
      vertex -59.375 23.5 14.0155
    endloop
  endfacet
  facet normal 0.866025 -1.11022e-16 -0.5
    outer loop
      vertex -60.1791 23.5 12.6228
      vertex -60.25 28.5 12.5
      vertex -59.4293 23.5 13.9215
    endloop
  endfacet
  facet normal 0.866025 -1.11022e-16 -0.5
    outer loop
      vertex -59.4293 23.5 13.9215
      vertex -60.25 28.5 12.5
      vertex -59.375 23.5 14.0155
    endloop
  endfacet
  facet normal 0.866025 -1.11022e-16 -0.5
    outer loop
      vertex -60.25 23.5 12.5
      vertex -60.25 28.5 12.5
      vertex -60.1791 23.5 12.6228
    endloop
  endfacet
  facet normal 0.866025 1.11022e-16 0.5
    outer loop
      vertex -59.4293 23.5 11.0785
      vertex -59.375 23.5 10.9845
      vertex -59.375 28.5 10.9845
    endloop
  endfacet
  facet normal 0.866025 1.11022e-16 0.5
    outer loop
      vertex -60.1791 23.5 12.3772
      vertex -59.4293 23.5 11.0785
      vertex -59.375 28.5 10.9845
    endloop
  endfacet
  facet normal 0.866025 1.11022e-16 0.5
    outer loop
      vertex -60.25 28.5 12.5
      vertex -60.1791 23.5 12.3772
      vertex -59.375 28.5 10.9845
    endloop
  endfacet
  facet normal 0.866025 1.11022e-16 0.5
    outer loop
      vertex -60.25 23.5 12.5
      vertex -60.1791 23.5 12.3772
      vertex -60.25 28.5 12.5
    endloop
  endfacet
  facet normal 0 -2.22045e-16 -1
    outer loop
      vertex -57.625 28.5 14.0155
      vertex -57.625 23.5 14.0155
      vertex -59.375 28.5 14.0155
    endloop
  endfacet
  facet normal 0 -2.22045e-16 -1
    outer loop
      vertex -59.375 28.5 14.0155
      vertex -57.625 23.5 14.0155
      vertex -57.685 23.5 14.0155
    endloop
  endfacet
  facet normal 0 -2.22045e-16 -1
    outer loop
      vertex -59.375 28.5 14.0155
      vertex -57.685 23.5 14.0155
      vertex -59.2234 23.5 14.0155
    endloop
  endfacet
  facet normal 0 -2.22045e-16 -1
    outer loop
      vertex -59.375 28.5 14.0155
      vertex -59.2234 23.5 14.0155
      vertex -59.375 23.5 14.0155
    endloop
  endfacet
  facet normal -0.866025 -1.11022e-16 -0.5
    outer loop
      vertex -56.75 28.5 12.5
      vertex -56.75 23.5 12.5
      vertex -57.625 28.5 14.0155
    endloop
  endfacet
  facet normal -0.866025 -1.11022e-16 -0.5
    outer loop
      vertex -57.625 28.5 14.0155
      vertex -56.75 23.5 12.5
      vertex -57.565 23.5 13.9116
    endloop
  endfacet
  facet normal -0.866025 -1.11022e-16 -0.5
    outer loop
      vertex -57.625 28.5 14.0155
      vertex -57.565 23.5 13.9116
      vertex -57.625 23.5 14.0155
    endloop
  endfacet
  facet normal -0.866025 1.11022e-16 0.5
    outer loop
      vertex -56.75 23.5 12.5
      vertex -56.75 28.5 12.5
      vertex -57.565 23.5 11.0884
    endloop
  endfacet
  facet normal -0.866025 1.11022e-16 0.5
    outer loop
      vertex -57.565 23.5 11.0884
      vertex -56.75 28.5 12.5
      vertex -57.625 28.5 10.9845
    endloop
  endfacet
  facet normal -0.866025 1.11022e-16 0.5
    outer loop
      vertex -57.565 23.5 11.0884
      vertex -57.625 28.5 10.9845
      vertex -57.625 23.5 10.9845
    endloop
  endfacet
  facet normal 0 2.22045e-16 1
    outer loop
      vertex -57.685 23.5 10.9845
      vertex -57.625 23.5 10.9845
      vertex -57.625 28.5 10.9845
    endloop
  endfacet
  facet normal 0 2.22045e-16 1
    outer loop
      vertex -59.2234 23.5 10.9845
      vertex -57.685 23.5 10.9845
      vertex -57.625 28.5 10.9845
    endloop
  endfacet
  facet normal 0 2.22045e-16 1
    outer loop
      vertex -59.375 28.5 10.9845
      vertex -59.2234 23.5 10.9845
      vertex -57.625 28.5 10.9845
    endloop
  endfacet
  facet normal 0 2.22045e-16 1
    outer loop
      vertex -59.375 23.5 10.9845
      vertex -59.2234 23.5 10.9845
      vertex -59.375 28.5 10.9845
    endloop
  endfacet
  facet normal 0.866025 -1.11022e-16 -0.5
    outer loop
      vertex -40.25 28.5 12.5
      vertex -39.375 28.5 14.0155
      vertex -39.375 23.5 14.0155
    endloop
  endfacet
  facet normal 0.866025 -1.11022e-16 -0.5
    outer loop
      vertex -40.1791 23.5 12.6228
      vertex -40.25 28.5 12.5
      vertex -39.4293 23.5 13.9215
    endloop
  endfacet
  facet normal 0.866025 -1.11022e-16 -0.5
    outer loop
      vertex -39.4293 23.5 13.9215
      vertex -40.25 28.5 12.5
      vertex -39.375 23.5 14.0155
    endloop
  endfacet
  facet normal 0.866025 -1.11022e-16 -0.5
    outer loop
      vertex -40.25 23.5 12.5
      vertex -40.25 28.5 12.5
      vertex -40.1791 23.5 12.6228
    endloop
  endfacet
  facet normal 0.866025 1.11022e-16 0.5
    outer loop
      vertex -39.4293 23.5 11.0785
      vertex -39.375 23.5 10.9845
      vertex -39.375 28.5 10.9845
    endloop
  endfacet
  facet normal 0.866025 1.11022e-16 0.5
    outer loop
      vertex -40.1791 23.5 12.3772
      vertex -39.4293 23.5 11.0785
      vertex -39.375 28.5 10.9845
    endloop
  endfacet
  facet normal 0.866025 1.11022e-16 0.5
    outer loop
      vertex -40.25 28.5 12.5
      vertex -40.1791 23.5 12.3772
      vertex -39.375 28.5 10.9845
    endloop
  endfacet
  facet normal 0.866025 1.11022e-16 0.5
    outer loop
      vertex -40.25 23.5 12.5
      vertex -40.1791 23.5 12.3772
      vertex -40.25 28.5 12.5
    endloop
  endfacet
  facet normal 0 -2.22045e-16 -1
    outer loop
      vertex -37.625 28.5 14.0155
      vertex -37.625 23.5 14.0155
      vertex -39.375 28.5 14.0155
    endloop
  endfacet
  facet normal 0 -2.22045e-16 -1
    outer loop
      vertex -39.375 28.5 14.0155
      vertex -37.625 23.5 14.0155
      vertex -37.685 23.5 14.0155
    endloop
  endfacet
  facet normal 0 -2.22045e-16 -1
    outer loop
      vertex -39.375 28.5 14.0155
      vertex -37.685 23.5 14.0155
      vertex -39.2234 23.5 14.0155
    endloop
  endfacet
  facet normal 0 -2.22045e-16 -1
    outer loop
      vertex -39.375 28.5 14.0155
      vertex -39.2234 23.5 14.0155
      vertex -39.375 23.5 14.0155
    endloop
  endfacet
  facet normal -0.866025 -1.11022e-16 -0.5
    outer loop
      vertex -36.75 28.5 12.5
      vertex -36.75 23.5 12.5
      vertex -37.625 28.5 14.0155
    endloop
  endfacet
  facet normal -0.866025 -1.11022e-16 -0.5
    outer loop
      vertex -37.625 28.5 14.0155
      vertex -36.75 23.5 12.5
      vertex -37.565 23.5 13.9116
    endloop
  endfacet
  facet normal -0.866025 -1.11022e-16 -0.5
    outer loop
      vertex -37.625 28.5 14.0155
      vertex -37.565 23.5 13.9116
      vertex -37.625 23.5 14.0155
    endloop
  endfacet
  facet normal -0.866025 1.11022e-16 0.5
    outer loop
      vertex -36.75 23.5 12.5
      vertex -36.75 28.5 12.5
      vertex -37.565 23.5 11.0884
    endloop
  endfacet
  facet normal -0.866025 1.11022e-16 0.5
    outer loop
      vertex -37.565 23.5 11.0884
      vertex -36.75 28.5 12.5
      vertex -37.625 28.5 10.9845
    endloop
  endfacet
  facet normal -0.866025 1.11022e-16 0.5
    outer loop
      vertex -37.565 23.5 11.0884
      vertex -37.625 28.5 10.9845
      vertex -37.625 23.5 10.9845
    endloop
  endfacet
  facet normal 0 2.22045e-16 1
    outer loop
      vertex -37.685 23.5 10.9845
      vertex -37.625 23.5 10.9845
      vertex -37.625 28.5 10.9845
    endloop
  endfacet
  facet normal 0 2.22045e-16 1
    outer loop
      vertex -39.2234 23.5 10.9845
      vertex -37.685 23.5 10.9845
      vertex -37.625 28.5 10.9845
    endloop
  endfacet
  facet normal 0 2.22045e-16 1
    outer loop
      vertex -39.375 28.5 10.9845
      vertex -39.2234 23.5 10.9845
      vertex -37.625 28.5 10.9845
    endloop
  endfacet
  facet normal 0 2.22045e-16 1
    outer loop
      vertex -39.375 23.5 10.9845
      vertex -39.2234 23.5 10.9845
      vertex -39.375 28.5 10.9845
    endloop
  endfacet
  facet normal 0 1 0
    outer loop
      vertex 0 28.3439 0
      vertex 0 28.3439 25
      vertex 2.97906 28.3439 0
    endloop
  endfacet
  facet normal 0 1 0
    outer loop
      vertex 2.97906 28.3439 0
      vertex 0 28.3439 25
      vertex 2.97906 28.3439 25
    endloop
  endfacet
  facet normal 0.207912 0.978148 0
    outer loop
      vertex 2.97906 28.3439 0
      vertex 2.97906 28.3439 25
      vertex 8.80698 27.1051 0
    endloop
  endfacet
  facet normal 0.207912 0.978148 0
    outer loop
      vertex 8.80698 27.1051 0
      vertex 2.97906 28.3439 25
      vertex 8.80698 27.1051 25
    endloop
  endfacet
  facet normal 0.406737 0.913545 0
    outer loop
      vertex 8.80698 27.1051 0
      vertex 8.80698 27.1051 25
      vertex 14.25 24.6817 0
    endloop
  endfacet
  facet normal 0.406737 0.913545 0
    outer loop
      vertex 14.25 24.6817 0
      vertex 8.80698 27.1051 25
      vertex 14.25 24.6817 25
    endloop
  endfacet
  facet normal 0.587785 0.809017 0
    outer loop
      vertex 14.25 24.6817 0
      vertex 14.25 24.6817 25
      vertex 19.0702 21.1796 0
    endloop
  endfacet
  facet normal 0.587785 0.809017 0
    outer loop
      vertex 19.0702 21.1796 0
      vertex 14.25 24.6817 25
      vertex 19.0702 21.1796 25
    endloop
  endfacet
  facet normal 0.743145 0.669131 0
    outer loop
      vertex 23.057 16.7519 0
      vertex 19.0702 21.1796 0
      vertex 19.0702 21.1796 25
    endloop
  endfacet
  facet normal 0.743145 0.669131 0
    outer loop
      vertex 23.057 16.7519 25
      vertex 23.057 16.7519 0
      vertex 19.0702 21.1796 25
    endloop
  endfacet
  facet normal 0.866025 0.5 0
    outer loop
      vertex 26.036 11.592 0
      vertex 23.057 16.7519 0
      vertex 23.057 16.7519 25
    endloop
  endfacet
  facet normal 0.866025 0.5 0
    outer loop
      vertex 26.036 11.592 25
      vertex 26.036 11.592 0
      vertex 23.057 16.7519 25
    endloop
  endfacet
  facet normal 0.951057 0.309017 0
    outer loop
      vertex 27.8772 5.92548 0
      vertex 26.036 11.592 0
      vertex 26.036 11.592 25
    endloop
  endfacet
  facet normal 0.951057 0.309017 0
    outer loop
      vertex 27.8772 5.92548 25
      vertex 27.8772 5.92548 0
      vertex 26.036 11.592 25
    endloop
  endfacet
  facet normal 0.994522 0.104528 0
    outer loop
      vertex 28.5 0 0
      vertex 27.8772 5.92548 0
      vertex 27.8772 5.92548 25
    endloop
  endfacet
  facet normal 0.994522 0.104528 0
    outer loop
      vertex 28.5 0 25
      vertex 28.5 0 0
      vertex 27.8772 5.92548 25
    endloop
  endfacet
  facet normal 0.994522 -0.104528 0
    outer loop
      vertex 27.8772 -5.92548 25
      vertex 27.8772 -5.92548 0
      vertex 28.5 0 0
    endloop
  endfacet
  facet normal 0.994522 -0.104528 0
    outer loop
      vertex 28.5 0 25
      vertex 27.8772 -5.92548 25
      vertex 28.5 0 0
    endloop
  endfacet
  facet normal 0.951057 -0.309017 0
    outer loop
      vertex 26.036 -11.592 25
      vertex 26.036 -11.592 0
      vertex 27.8772 -5.92548 0
    endloop
  endfacet
  facet normal 0.951057 -0.309017 0
    outer loop
      vertex 27.8772 -5.92548 25
      vertex 26.036 -11.592 25
      vertex 27.8772 -5.92548 0
    endloop
  endfacet
  facet normal 0.866025 -0.5 0
    outer loop
      vertex 23.057 -16.7519 25
      vertex 23.057 -16.7519 0
      vertex 26.036 -11.592 0
    endloop
  endfacet
  facet normal 0.866025 -0.5 0
    outer loop
      vertex 26.036 -11.592 25
      vertex 23.057 -16.7519 25
      vertex 26.036 -11.592 0
    endloop
  endfacet
  facet normal 0.743145 -0.669131 0
    outer loop
      vertex 19.0702 -21.1796 25
      vertex 19.0702 -21.1796 0
      vertex 23.057 -16.7519 0
    endloop
  endfacet
  facet normal 0.743145 -0.669131 0
    outer loop
      vertex 23.057 -16.7519 25
      vertex 19.0702 -21.1796 25
      vertex 23.057 -16.7519 0
    endloop
  endfacet
  facet normal 0.587785 -0.809017 0
    outer loop
      vertex 14.25 -24.6817 25
      vertex 14.25 -24.6817 0
      vertex 19.0702 -21.1796 0
    endloop
  endfacet
  facet normal 0.587785 -0.809017 0
    outer loop
      vertex 19.0702 -21.1796 25
      vertex 14.25 -24.6817 25
      vertex 19.0702 -21.1796 0
    endloop
  endfacet
  facet normal 0.406737 -0.913545 0
    outer loop
      vertex 8.80698 -27.1051 25
      vertex 8.80698 -27.1051 0
      vertex 14.25 -24.6817 0
    endloop
  endfacet
  facet normal 0.406737 -0.913545 0
    outer loop
      vertex 14.25 -24.6817 25
      vertex 8.80698 -27.1051 25
      vertex 14.25 -24.6817 0
    endloop
  endfacet
  facet normal 0.207912 -0.978148 0
    outer loop
      vertex 2.97906 -28.3439 25
      vertex 2.97906 -28.3439 0
      vertex 8.80698 -27.1051 0
    endloop
  endfacet
  facet normal 0.207912 -0.978148 0
    outer loop
      vertex 8.80698 -27.1051 25
      vertex 2.97906 -28.3439 25
      vertex 8.80698 -27.1051 0
    endloop
  endfacet
  facet normal 0 -1 0
    outer loop
      vertex -2.97906 -28.3439 25
      vertex -2.97906 -28.3439 0
      vertex 2.97906 -28.3439 0
    endloop
  endfacet
  facet normal 0 -1 0
    outer loop
      vertex 2.97906 -28.3439 25
      vertex -2.97906 -28.3439 25
      vertex 2.97906 -28.3439 0
    endloop
  endfacet
  facet normal -0.207912 -0.978148 0
    outer loop
      vertex -8.80698 -27.1051 25
      vertex -8.80698 -27.1051 0
      vertex -2.97906 -28.3439 0
    endloop
  endfacet
  facet normal -0.207912 -0.978148 0
    outer loop
      vertex -2.97906 -28.3439 25
      vertex -8.80698 -27.1051 25
      vertex -2.97906 -28.3439 0
    endloop
  endfacet
  facet normal -0.406737 -0.913545 0
    outer loop
      vertex -14.25 -24.6817 25
      vertex -14.25 -24.6817 0
      vertex -8.80698 -27.1051 0
    endloop
  endfacet
  facet normal -0.406737 -0.913545 0
    outer loop
      vertex -8.80698 -27.1051 25
      vertex -14.25 -24.6817 25
      vertex -8.80698 -27.1051 0
    endloop
  endfacet
  facet normal -0.587785 -0.809017 0
    outer loop
      vertex -19.0702 -21.1796 25
      vertex -19.0702 -21.1796 0
      vertex -14.25 -24.6817 0
    endloop
  endfacet
  facet normal -0.587785 -0.809017 0
    outer loop
      vertex -14.25 -24.6817 25
      vertex -19.0702 -21.1796 25
      vertex -14.25 -24.6817 0
    endloop
  endfacet
  facet normal -0.743145 -0.669131 0
    outer loop
      vertex -23.057 -16.7519 0
      vertex -19.0702 -21.1796 0
      vertex -23.057 -16.7519 25
    endloop
  endfacet
  facet normal -0.743145 -0.669131 0
    outer loop
      vertex -23.057 -16.7519 25
      vertex -19.0702 -21.1796 0
      vertex -19.0702 -21.1796 25
    endloop
  endfacet
  facet normal -0.866025 -0.5 0
    outer loop
      vertex -26.036 -11.592 0
      vertex -23.057 -16.7519 0
      vertex -26.036 -11.592 25
    endloop
  endfacet
  facet normal -0.866025 -0.5 0
    outer loop
      vertex -26.036 -11.592 25
      vertex -23.057 -16.7519 0
      vertex -23.057 -16.7519 25
    endloop
  endfacet
  facet normal -0.951057 -0.309017 0
    outer loop
      vertex -27.8772 -5.92548 0
      vertex -26.036 -11.592 0
      vertex -27.8772 -5.92548 25
    endloop
  endfacet
  facet normal -0.951057 -0.309017 0
    outer loop
      vertex -27.8772 -5.92548 25
      vertex -26.036 -11.592 0
      vertex -26.036 -11.592 25
    endloop
  endfacet
  facet normal -0.994522 -0.104528 0
    outer loop
      vertex -28.5 0 0
      vertex -27.8772 -5.92548 0
      vertex -28.5 0 25
    endloop
  endfacet
  facet normal -0.994522 -0.104528 0
    outer loop
      vertex -28.5 0 25
      vertex -27.8772 -5.92548 0
      vertex -27.8772 -5.92548 25
    endloop
  endfacet
  facet normal -1 0 0
    outer loop
      vertex -28.5 0 0
      vertex -28.5 0 25
      vertex -28.5 16.5 0
    endloop
  endfacet
  facet normal -1 0 0
    outer loop
      vertex -28.5 16.5 0
      vertex -28.5 0 25
      vertex -28.5 16.5 25
    endloop
  endfacet
  facet normal -0.980785 -0.19509 0
    outer loop
      vertex -28.5 16.5 25
      vertex -28.8806 18.4134 25
      vertex -28.5 16.5 0
    endloop
  endfacet
  facet normal -0.980785 -0.19509 0
    outer loop
      vertex -28.5 16.5 0
      vertex -28.8806 18.4134 25
      vertex -28.8806 18.4134 0
    endloop
  endfacet
  facet normal -0.83147 -0.55557 0
    outer loop
      vertex -28.8806 18.4134 25
      vertex -29.9645 20.0355 25
      vertex -28.8806 18.4134 0
    endloop
  endfacet
  facet normal -0.83147 -0.55557 0
    outer loop
      vertex -28.8806 18.4134 0
      vertex -29.9645 20.0355 25
      vertex -29.9645 20.0355 0
    endloop
  endfacet
  facet normal -0.55557 -0.83147 0
    outer loop
      vertex -29.9645 20.0355 0
      vertex -29.9645 20.0355 25
      vertex -31.5866 21.1194 25
    endloop
  endfacet
  facet normal -0.55557 -0.83147 0
    outer loop
      vertex -31.5866 21.1194 0
      vertex -29.9645 20.0355 0
      vertex -31.5866 21.1194 25
    endloop
  endfacet
  facet normal 0.994522 0.104528 0
    outer loop
      vertex -23.5 0 25
      vertex -22.9865 -4.88592 25
      vertex -22.9865 -4.88592 0
    endloop
  endfacet
  facet normal 0.994522 0.104528 0
    outer loop
      vertex -23.5 0 0
      vertex -23.5 0 25
      vertex -22.9865 -4.88592 0
    endloop
  endfacet
  facet normal 0.951056 0.309017 0
    outer loop
      vertex -22.9865 -4.88592 25
      vertex -21.4683 -9.55831 25
      vertex -21.4683 -9.55831 0
    endloop
  endfacet
  facet normal 0.951056 0.309017 0
    outer loop
      vertex -22.9865 -4.88592 0
      vertex -22.9865 -4.88592 25
      vertex -21.4683 -9.55831 0
    endloop
  endfacet
  facet normal 0.866025 0.5 0
    outer loop
      vertex -21.4683 -9.55831 25
      vertex -19.0119 -13.813 25
      vertex -19.0119 -13.813 0
    endloop
  endfacet
  facet normal 0.866025 0.5 0
    outer loop
      vertex -21.4683 -9.55831 0
      vertex -21.4683 -9.55831 25
      vertex -19.0119 -13.813 0
    endloop
  endfacet
  facet normal 0.743145 0.669131 0
    outer loop
      vertex -19.0119 -13.813 25
      vertex -15.7246 -17.4639 25
      vertex -15.7246 -17.4639 0
    endloop
  endfacet
  facet normal 0.743145 0.669131 0
    outer loop
      vertex -19.0119 -13.813 0
      vertex -19.0119 -13.813 25
      vertex -15.7246 -17.4639 0
    endloop
  endfacet
  facet normal 0.587785 0.809017 0
    outer loop
      vertex -11.75 -20.3516 25
      vertex -11.75 -20.3516 0
      vertex -15.7246 -17.4639 25
    endloop
  endfacet
  facet normal 0.587785 0.809017 0
    outer loop
      vertex -15.7246 -17.4639 25
      vertex -11.75 -20.3516 0
      vertex -15.7246 -17.4639 0
    endloop
  endfacet
  facet normal 0.406737 0.913545 0
    outer loop
      vertex -7.2619 -22.3498 25
      vertex -7.2619 -22.3498 0
      vertex -11.75 -20.3516 25
    endloop
  endfacet
  facet normal 0.406737 0.913545 0
    outer loop
      vertex -11.75 -20.3516 25
      vertex -7.2619 -22.3498 0
      vertex -11.75 -20.3516 0
    endloop
  endfacet
  facet normal 0.207912 0.978148 0
    outer loop
      vertex -2.45642 -23.3713 25
      vertex -2.45642 -23.3713 0
      vertex -7.2619 -22.3498 25
    endloop
  endfacet
  facet normal 0.207912 0.978148 0
    outer loop
      vertex -7.2619 -22.3498 25
      vertex -2.45642 -23.3713 0
      vertex -7.2619 -22.3498 0
    endloop
  endfacet
  facet normal 0 1 0
    outer loop
      vertex 2.45642 -23.3713 25
      vertex 2.45642 -23.3713 0
      vertex -2.45642 -23.3713 25
    endloop
  endfacet
  facet normal 0 1 0
    outer loop
      vertex -2.45642 -23.3713 25
      vertex 2.45642 -23.3713 0
      vertex -2.45642 -23.3713 0
    endloop
  endfacet
  facet normal -0.207912 0.978148 0
    outer loop
      vertex 7.2619 -22.3498 25
      vertex 7.2619 -22.3498 0
      vertex 2.45642 -23.3713 25
    endloop
  endfacet
  facet normal -0.207912 0.978148 0
    outer loop
      vertex 2.45642 -23.3713 25
      vertex 7.2619 -22.3498 0
      vertex 2.45642 -23.3713 0
    endloop
  endfacet
  facet normal -0.406737 0.913545 0
    outer loop
      vertex 11.75 -20.3516 25
      vertex 11.75 -20.3516 0
      vertex 7.2619 -22.3498 25
    endloop
  endfacet
  facet normal -0.406737 0.913545 0
    outer loop
      vertex 7.2619 -22.3498 25
      vertex 11.75 -20.3516 0
      vertex 7.2619 -22.3498 0
    endloop
  endfacet
  facet normal -0.587785 0.809017 0
    outer loop
      vertex 15.7246 -17.4639 25
      vertex 15.7246 -17.4639 0
      vertex 11.75 -20.3516 25
    endloop
  endfacet
  facet normal -0.587785 0.809017 0
    outer loop
      vertex 11.75 -20.3516 25
      vertex 15.7246 -17.4639 0
      vertex 11.75 -20.3516 0
    endloop
  endfacet
  facet normal -0.743145 0.669131 0
    outer loop
      vertex 19.0119 -13.813 25
      vertex 19.0119 -13.813 0
      vertex 15.7246 -17.4639 25
    endloop
  endfacet
  facet normal -0.743145 0.669131 0
    outer loop
      vertex 15.7246 -17.4639 25
      vertex 19.0119 -13.813 0
      vertex 15.7246 -17.4639 0
    endloop
  endfacet
  facet normal -0.866025 0.5 0
    outer loop
      vertex 21.4683 -9.55831 25
      vertex 21.4683 -9.55831 0
      vertex 19.0119 -13.813 25
    endloop
  endfacet
  facet normal -0.866025 0.5 0
    outer loop
      vertex 19.0119 -13.813 25
      vertex 21.4683 -9.55831 0
      vertex 19.0119 -13.813 0
    endloop
  endfacet
  facet normal -0.951056 0.309017 0
    outer loop
      vertex 22.9865 -4.88592 25
      vertex 22.9865 -4.88592 0
      vertex 21.4683 -9.55831 25
    endloop
  endfacet
  facet normal -0.951056 0.309017 0
    outer loop
      vertex 21.4683 -9.55831 25
      vertex 22.9865 -4.88592 0
      vertex 21.4683 -9.55831 0
    endloop
  endfacet
  facet normal -0.994522 0.104528 0
    outer loop
      vertex 23.5 0 25
      vertex 23.5 0 0
      vertex 22.9865 -4.88592 25
    endloop
  endfacet
  facet normal -0.994522 0.104528 0
    outer loop
      vertex 22.9865 -4.88592 25
      vertex 23.5 0 0
      vertex 22.9865 -4.88592 0
    endloop
  endfacet
  facet normal -0.994522 -0.104528 0
    outer loop
      vertex 23.5 0 25
      vertex 22.9865 4.88592 25
      vertex 23.5 0 0
    endloop
  endfacet
  facet normal -0.994522 -0.104528 0
    outer loop
      vertex 23.5 0 0
      vertex 22.9865 4.88592 25
      vertex 22.9865 4.88592 0
    endloop
  endfacet
  facet normal -0.951056 -0.309017 0
    outer loop
      vertex 22.9865 4.88592 25
      vertex 21.4683 9.55831 25
      vertex 22.9865 4.88592 0
    endloop
  endfacet
  facet normal -0.951056 -0.309017 0
    outer loop
      vertex 22.9865 4.88592 0
      vertex 21.4683 9.55831 25
      vertex 21.4683 9.55831 0
    endloop
  endfacet
  facet normal -0.866025 -0.5 0
    outer loop
      vertex 21.4683 9.55831 25
      vertex 19.0119 13.813 25
      vertex 21.4683 9.55831 0
    endloop
  endfacet
  facet normal -0.866025 -0.5 0
    outer loop
      vertex 21.4683 9.55831 0
      vertex 19.0119 13.813 25
      vertex 19.0119 13.813 0
    endloop
  endfacet
  facet normal -0.743145 -0.669131 0
    outer loop
      vertex 19.0119 13.813 25
      vertex 15.7246 17.4639 25
      vertex 19.0119 13.813 0
    endloop
  endfacet
  facet normal -0.743145 -0.669131 0
    outer loop
      vertex 19.0119 13.813 0
      vertex 15.7246 17.4639 25
      vertex 15.7246 17.4639 0
    endloop
  endfacet
  facet normal -0.587785 -0.809017 0
    outer loop
      vertex 15.7246 17.4639 0
      vertex 15.7246 17.4639 25
      vertex 11.75 20.3516 25
    endloop
  endfacet
  facet normal -0.587785 -0.809017 0
    outer loop
      vertex 11.75 20.3516 0
      vertex 15.7246 17.4639 0
      vertex 11.75 20.3516 25
    endloop
  endfacet
  facet normal -0.406737 -0.913545 0
    outer loop
      vertex 11.75 20.3516 0
      vertex 11.75 20.3516 25
      vertex 7.2619 22.3498 25
    endloop
  endfacet
  facet normal -0.406737 -0.913545 0
    outer loop
      vertex 7.2619 22.3498 0
      vertex 11.75 20.3516 0
      vertex 7.2619 22.3498 25
    endloop
  endfacet
  facet normal -0.207912 -0.978148 0
    outer loop
      vertex 7.2619 22.3498 0
      vertex 7.2619 22.3498 25
      vertex 2.45642 23.3713 25
    endloop
  endfacet
  facet normal -0.207912 -0.978148 0
    outer loop
      vertex 2.45642 23.3713 0
      vertex 7.2619 22.3498 0
      vertex 2.45642 23.3713 25
    endloop
  endfacet
  facet normal 0 -1 0
    outer loop
      vertex 2.45642 23.3713 0
      vertex 2.45642 23.3713 25
      vertex -2.45642 23.3713 25
    endloop
  endfacet
  facet normal 0 -1 0
    outer loop
      vertex -2.45642 23.3713 0
      vertex 2.45642 23.3713 0
      vertex -2.45642 23.3713 25
    endloop
  endfacet
  facet normal 0.207912 -0.978148 0
    outer loop
      vertex -2.45642 23.3713 0
      vertex -2.45642 23.3713 25
      vertex -7.2619 22.3498 25
    endloop
  endfacet
  facet normal 0.207912 -0.978148 0
    outer loop
      vertex -7.2619 22.3498 0
      vertex -2.45642 23.3713 0
      vertex -7.2619 22.3498 25
    endloop
  endfacet
  facet normal 0.406737 -0.913545 0
    outer loop
      vertex -7.2619 22.3498 0
      vertex -7.2619 22.3498 25
      vertex -11.75 20.3516 25
    endloop
  endfacet
  facet normal 0.406737 -0.913545 0
    outer loop
      vertex -11.75 20.3516 0
      vertex -7.2619 22.3498 0
      vertex -11.75 20.3516 25
    endloop
  endfacet
  facet normal 0.587785 -0.809017 0
    outer loop
      vertex -11.75 20.3516 0
      vertex -11.75 20.3516 25
      vertex -15.7246 17.4639 25
    endloop
  endfacet
  facet normal 0.587785 -0.809017 0
    outer loop
      vertex -15.7246 17.4639 0
      vertex -11.75 20.3516 0
      vertex -15.7246 17.4639 25
    endloop
  endfacet
  facet normal 0.743145 -0.669131 0
    outer loop
      vertex -15.7246 17.4639 0
      vertex -15.7246 17.4639 25
      vertex -19.0119 13.813 25
    endloop
  endfacet
  facet normal 0.743145 -0.669131 0
    outer loop
      vertex -19.0119 13.813 0
      vertex -15.7246 17.4639 0
      vertex -19.0119 13.813 25
    endloop
  endfacet
  facet normal 0.866025 -0.5 0
    outer loop
      vertex -19.0119 13.813 0
      vertex -19.0119 13.813 25
      vertex -21.4683 9.55831 25
    endloop
  endfacet
  facet normal 0.866025 -0.5 0
    outer loop
      vertex -21.4683 9.55831 0
      vertex -19.0119 13.813 0
      vertex -21.4683 9.55831 25
    endloop
  endfacet
  facet normal 0.951056 -0.309017 0
    outer loop
      vertex -21.4683 9.55831 0
      vertex -21.4683 9.55831 25
      vertex -22.9865 4.88592 25
    endloop
  endfacet
  facet normal 0.951056 -0.309017 0
    outer loop
      vertex -22.9865 4.88592 0
      vertex -21.4683 9.55831 0
      vertex -22.9865 4.88592 25
    endloop
  endfacet
  facet normal 0.994522 -0.104528 0
    outer loop
      vertex -22.9865 4.88592 0
      vertex -22.9865 4.88592 25
      vertex -23.5 0 25
    endloop
  endfacet
  facet normal 0.994522 -0.104528 0
    outer loop
      vertex -23.5 0 0
      vertex -22.9865 4.88592 0
      vertex -23.5 0 25
    endloop
  endfacet
  facet normal 0 -1 2.22045e-16
    outer loop
      vertex -60.1791 23.5 12.993
      vertex -60.1791 23.5 12.6228
      vertex -59.4293 23.5 13.9215
    endloop
  endfacet
  facet normal 0 -1 2.22045e-16
    outer loop
      vertex -59.646 23.5 13.8226
      vertex -60.1791 23.5 12.993
      vertex -59.4293 23.5 13.9215
    endloop
  endfacet
  facet normal 0 1 -2.22045e-16
    outer loop
      vertex -60.1791 23.5 12.6228
      vertex -60.1791 23.5 12.3772
      vertex -60.25 23.5 12.5
    endloop
  endfacet
  facet normal 0 -1 2.22045e-16
    outer loop
      vertex -60.1791 23.5 12.3772
      vertex -60.1791 23.5 12.007
      vertex -59.646 23.5 11.1774
    endloop
  endfacet
  facet normal 0 -1 2.22045e-16
    outer loop
      vertex -59.4293 23.5 11.0785
      vertex -60.1791 23.5 12.3772
      vertex -59.646 23.5 11.1774
    endloop
  endfacet
  facet normal 0 1 -2.22045e-16
    outer loop
      vertex -59.2234 23.5 10.9845
      vertex -59.375 23.5 10.9845
      vertex -59.4293 23.5 11.0785
    endloop
  endfacet
  facet normal 0 -1 2.22045e-16
    outer loop
      vertex -57.685 23.5 10.9845
      vertex -59.2234 23.5 10.9845
      vertex -58.7491 23.5 10.7678
    endloop
  endfacet
  facet normal 0 -1 2.22045e-16
    outer loop
      vertex -57.773 23.5 10.9081
      vertex -57.685 23.5 10.9845
      vertex -58.7491 23.5 10.7678
    endloop
  endfacet
  facet normal 0 1 -2.22045e-16
    outer loop
      vertex -57.565 23.5 11.0884
      vertex -57.625 23.5 10.9845
      vertex -57.685 23.5 10.9845
    endloop
  endfacet
  facet normal 0 -1 2.22045e-16
    outer loop
      vertex -56.75 23.5 12.5
      vertex -57.565 23.5 11.0884
      vertex -57.0278 23.5 11.5539
    endloop
  endfacet
  facet normal 0 -1 2.22045e-16
    outer loop
      vertex -57.0278 23.5 13.4461
      vertex -57.565 23.5 13.9116
      vertex -56.75 23.5 12.5
    endloop
  endfacet
  facet normal 0 -1 2.22045e-16
    outer loop
      vertex -58.7491 23.5 14.2322
      vertex -59.2234 23.5 14.0155
      vertex -57.685 23.5 14.0155
    endloop
  endfacet
  facet normal 0 -1 2.22045e-16
    outer loop
      vertex -57.773 23.5 14.0919
      vertex -58.7491 23.5 14.2322
      vertex -57.685 23.5 14.0155
    endloop
  endfacet
  facet normal 0 1 -2.22045e-16
    outer loop
      vertex -57.625 23.5 14.0155
      vertex -57.565 23.5 13.9116
      vertex -57.685 23.5 14.0155
    endloop
  endfacet
  facet normal 0 1 -2.22045e-16
    outer loop
      vertex -59.375 23.5 14.0155
      vertex -59.2234 23.5 14.0155
      vertex -59.4293 23.5 13.9215
    endloop
  endfacet
  facet normal 0 -1 2.22045e-16
    outer loop
      vertex -40.1791 23.5 12.993
      vertex -40.1791 23.5 12.6228
      vertex -39.4293 23.5 13.9215
    endloop
  endfacet
  facet normal 0 -1 2.22045e-16
    outer loop
      vertex -39.646 23.5 13.8226
      vertex -40.1791 23.5 12.993
      vertex -39.4293 23.5 13.9215
    endloop
  endfacet
  facet normal 0 1 -2.22045e-16
    outer loop
      vertex -40.1791 23.5 12.6228
      vertex -40.1791 23.5 12.3772
      vertex -40.25 23.5 12.5
    endloop
  endfacet
  facet normal 0 -1 2.22045e-16
    outer loop
      vertex -40.1791 23.5 12.3772
      vertex -40.1791 23.5 12.007
      vertex -39.646 23.5 11.1774
    endloop
  endfacet
  facet normal 0 -1 2.22045e-16
    outer loop
      vertex -39.4293 23.5 11.0785
      vertex -40.1791 23.5 12.3772
      vertex -39.646 23.5 11.1774
    endloop
  endfacet
  facet normal 0 1 -2.22045e-16
    outer loop
      vertex -39.2234 23.5 10.9845
      vertex -39.375 23.5 10.9845
      vertex -39.4293 23.5 11.0785
    endloop
  endfacet
  facet normal 0 -1 2.22045e-16
    outer loop
      vertex -37.685 23.5 10.9845
      vertex -39.2234 23.5 10.9845
      vertex -38.7491 23.5 10.7678
    endloop
  endfacet
  facet normal 0 -1 2.22045e-16
    outer loop
      vertex -37.773 23.5 10.9081
      vertex -37.685 23.5 10.9845
      vertex -38.7491 23.5 10.7678
    endloop
  endfacet
  facet normal 0 1 -2.22045e-16
    outer loop
      vertex -37.565 23.5 11.0884
      vertex -37.625 23.5 10.9845
      vertex -37.685 23.5 10.9845
    endloop
  endfacet
  facet normal 0 -1 2.22045e-16
    outer loop
      vertex -36.75 23.5 12.5
      vertex -37.565 23.5 11.0884
      vertex -37.0278 23.5 11.5539
    endloop
  endfacet
  facet normal 0 -1 2.22045e-16
    outer loop
      vertex -37.0278 23.5 13.4461
      vertex -37.565 23.5 13.9116
      vertex -36.75 23.5 12.5
    endloop
  endfacet
  facet normal 0 -1 2.22045e-16
    outer loop
      vertex -38.7491 23.5 14.2322
      vertex -39.2234 23.5 14.0155
      vertex -37.685 23.5 14.0155
    endloop
  endfacet
  facet normal 0 -1 2.22045e-16
    outer loop
      vertex -37.773 23.5 14.0919
      vertex -38.7491 23.5 14.2322
      vertex -37.685 23.5 14.0155
    endloop
  endfacet
  facet normal 0 1 -2.22045e-16
    outer loop
      vertex -37.625 23.5 14.0155
      vertex -37.565 23.5 13.9116
      vertex -37.685 23.5 14.0155
    endloop
  endfacet
  facet normal 0 1 -2.22045e-16
    outer loop
      vertex -39.375 23.5 14.0155
      vertex -39.2234 23.5 14.0155
      vertex -39.4293 23.5 13.9215
    endloop
  endfacet
endsolid OpenSCAD_Model
