solid OpenSCAD_Model
  facet normal 0 0 -1
    outer loop
      vertex -25.5 0 0
      vertex -24.9428 5.30175 0
      vertex -24.9428 -5.30175 0
    endloop
  endfacet
  facet normal 0 0 -1
    outer loop
      vertex -24.9428 -5.30175 0
      vertex -24.9428 5.30175 0
      vertex -23.2954 10.3718 0
    endloop
  endfacet
  facet normal 0 0 -1
    outer loop
      vertex -22.9865 4.88592 0
      vertex -23.2954 10.3718 0
      vertex -20.6299 14.9885 0
    endloop
  endfacet
  facet normal 0 0 -1
    outer loop
      vertex -19.0119 13.813 0
      vertex -20.6299 14.9885 0
      vertex -17.0628 18.9502 0
    endloop
  endfacet
  facet normal 0 0 -1
    outer loop
      vertex -15.7246 17.4639 0
      vertex -17.0628 18.9502 0
      vertex -12.75 22.0836 0
    endloop
  endfacet
  facet normal 0 0 -1
    outer loop
      vertex -11.75 20.3516 0
      vertex -12.75 22.0836 0
      vertex -7.87993 24.2519 0
    endloop
  endfacet
  facet normal 0 0 -1
    outer loop
      vertex -7.2619 22.3498 0
      vertex -7.87993 24.2519 0
      vertex -2.66548 25.3603 0
    endloop
  endfacet
  facet normal 0 0 -1
    outer loop
      vertex -2.45642 23.3713 0
      vertex -2.66548 25.3603 0
      vertex 2.66548 25.3603 0
    endloop
  endfacet
  facet normal 0 0 -1
    outer loop
      vertex 2.45642 23.3713 0
      vertex 2.66548 25.3603 0
      vertex 7.87993 24.2519 0
    endloop
  endfacet
  facet normal 0 0 -1
    outer loop
      vertex 7.2619 22.3498 0
      vertex 7.87993 24.2519 0
      vertex 12.75 22.0836 0
    endloop
  endfacet
  facet normal 0 0 -1
    outer loop
      vertex 11.75 20.3516 0
      vertex 12.75 22.0836 0
      vertex 17.0628 18.9502 0
    endloop
  endfacet
  facet normal 0 0 -1
    outer loop
      vertex 15.7246 17.4639 0
      vertex 17.0628 18.9502 0
      vertex 20.6299 14.9885 0
    endloop
  endfacet
  facet normal 0 0 -1
    outer loop
      vertex 19.0119 13.813 0
      vertex 20.6299 14.9885 0
      vertex 23.2954 10.3718 0
    endloop
  endfacet
  facet normal 0 0 -1
    outer loop
      vertex 22.9865 4.88592 0
      vertex 23.2954 10.3718 0
      vertex 24.9428 5.30175 0
    endloop
  endfacet
  facet normal 0 0 -1
    outer loop
      vertex 23.5 0 0
      vertex 24.9428 5.30175 0
      vertex 25.5 0 0
    endloop
  endfacet
  facet normal 0 0 -1
    outer loop
      vertex 22.9865 -4.88592 0
      vertex 25.5 0 0
      vertex 24.9428 -5.30175 0
    endloop
  endfacet
  facet normal 0 0 -1
    outer loop
      vertex 21.4683 -9.55831 0
      vertex 24.9428 -5.30175 0
      vertex 23.2954 -10.3718 0
    endloop
  endfacet
  facet normal 0 0 -1
    outer loop
      vertex 19.0119 -13.813 0
      vertex 23.2954 -10.3718 0
      vertex 20.6299 -14.9885 0
    endloop
  endfacet
  facet normal 0 0 -1
    outer loop
      vertex 15.7246 -17.4639 0
      vertex 20.6299 -14.9885 0
      vertex 17.0628 -18.9502 0
    endloop
  endfacet
  facet normal 0 0 -1
    outer loop
      vertex 11.75 -20.3516 0
      vertex 17.0628 -18.9502 0
      vertex 12.75 -22.0836 0
    endloop
  endfacet
  facet normal 0 0 -1
    outer loop
      vertex 7.2619 -22.3498 0
      vertex 12.75 -22.0836 0
      vertex 7.87993 -24.2519 0
    endloop
  endfacet
  facet normal 0 0 -1
    outer loop
      vertex 2.45642 -23.3713 0
      vertex 7.87993 -24.2519 0
      vertex 2.66548 -25.3603 0
    endloop
  endfacet
  facet normal 0 0 -1
    outer loop
      vertex -2.45642 -23.3713 0
      vertex 2.66548 -25.3603 0
      vertex -2.66548 -25.3603 0
    endloop
  endfacet
  facet normal 0 0 -1
    outer loop
      vertex -7.2619 -22.3498 0
      vertex -2.66548 -25.3603 0
      vertex -7.87993 -24.2519 0
    endloop
  endfacet
  facet normal 0 0 -1
    outer loop
      vertex -15.7246 -17.4639 0
      vertex -7.87993 -24.2519 0
      vertex -12.75 -22.0836 0
    endloop
  endfacet
  facet normal 0 0 -1
    outer loop
      vertex -19.0119 -13.813 0
      vertex -12.75 -22.0836 0
      vertex -17.0628 -18.9502 0
    endloop
  endfacet
  facet normal 0 0 -1
    outer loop
      vertex -24.9428 -5.30175 0
      vertex -17.0628 -18.9502 0
      vertex -20.6299 -14.9885 0
    endloop
  endfacet
  facet normal 0 0 -1
    outer loop
      vertex -24.9428 -5.30175 0
      vertex -20.6299 -14.9885 0
      vertex -23.2954 -10.3718 0
    endloop
  endfacet
  facet normal 0 0 -1
    outer loop
      vertex -22.9865 -4.88592 0
      vertex -24.9428 -5.30175 0
      vertex -23.5 0 0
    endloop
  endfacet
  facet normal 0 0 -1
    outer loop
      vertex -21.4683 -9.55831 0
      vertex -24.9428 -5.30175 0
      vertex -22.9865 -4.88592 0
    endloop
  endfacet
  facet normal 0 0 -1
    outer loop
      vertex -19.0119 -13.813 0
      vertex -24.9428 -5.30175 0
      vertex -21.4683 -9.55831 0
    endloop
  endfacet
  facet normal 0 0 -1
    outer loop
      vertex -15.7246 -17.4639 0
      vertex -12.75 -22.0836 0
      vertex -19.0119 -13.813 0
    endloop
  endfacet
  facet normal 0 0 -1
    outer loop
      vertex -24.9428 -5.30175 0
      vertex -19.0119 -13.813 0
      vertex -17.0628 -18.9502 0
    endloop
  endfacet
  facet normal 0 0 -1
    outer loop
      vertex -11.75 -20.3516 0
      vertex -7.87993 -24.2519 0
      vertex -15.7246 -17.4639 0
    endloop
  endfacet
  facet normal 0 0 -1
    outer loop
      vertex -7.2619 -22.3498 0
      vertex -7.87993 -24.2519 0
      vertex -11.75 -20.3516 0
    endloop
  endfacet
  facet normal 0 0 -1
    outer loop
      vertex 22.9865 4.88592 0
      vertex 24.9428 5.30175 0
      vertex 23.5 0 0
    endloop
  endfacet
  facet normal 0 0 -1
    outer loop
      vertex 21.4683 9.55831 0
      vertex 23.2954 10.3718 0
      vertex 22.9865 4.88592 0
    endloop
  endfacet
  facet normal 0 0 -1
    outer loop
      vertex 23.5 0 0
      vertex 25.5 0 0
      vertex 22.9865 -4.88592 0
    endloop
  endfacet
  facet normal 0 0 -1
    outer loop
      vertex 22.9865 -4.88592 0
      vertex 24.9428 -5.30175 0
      vertex 21.4683 -9.55831 0
    endloop
  endfacet
  facet normal 0 0 -1
    outer loop
      vertex 21.4683 -9.55831 0
      vertex 23.2954 -10.3718 0
      vertex 19.0119 -13.813 0
    endloop
  endfacet
  facet normal 0 0 -1
    outer loop
      vertex 19.0119 -13.813 0
      vertex 20.6299 -14.9885 0
      vertex 15.7246 -17.4639 0
    endloop
  endfacet
  facet normal 0 0 -1
    outer loop
      vertex 15.7246 -17.4639 0
      vertex 17.0628 -18.9502 0
      vertex 11.75 -20.3516 0
    endloop
  endfacet
  facet normal 0 0 -1
    outer loop
      vertex 11.75 -20.3516 0
      vertex 12.75 -22.0836 0
      vertex 7.2619 -22.3498 0
    endloop
  endfacet
  facet normal 0 0 -1
    outer loop
      vertex 7.2619 -22.3498 0
      vertex 7.87993 -24.2519 0
      vertex 2.45642 -23.3713 0
    endloop
  endfacet
  facet normal 0 0 -1
    outer loop
      vertex 2.45642 -23.3713 0
      vertex 2.66548 -25.3603 0
      vertex -2.45642 -23.3713 0
    endloop
  endfacet
  facet normal 0 0 -1
    outer loop
      vertex -2.45642 -23.3713 0
      vertex -2.66548 -25.3603 0
      vertex -7.2619 -22.3498 0
    endloop
  endfacet
  facet normal 0 0 -1
    outer loop
      vertex -21.4683 9.55831 0
      vertex -20.6299 14.9885 0
      vertex -19.0119 13.813 0
    endloop
  endfacet
  facet normal 0 0 -1
    outer loop
      vertex -22.9865 4.88592 0
      vertex -20.6299 14.9885 0
      vertex -21.4683 9.55831 0
    endloop
  endfacet
  facet normal 0 0 -1
    outer loop
      vertex -24.9428 -5.30175 0
      vertex -23.2954 10.3718 0
      vertex -22.9865 4.88592 0
    endloop
  endfacet
  facet normal 0 0 -1
    outer loop
      vertex -23.5 0 0
      vertex -24.9428 -5.30175 0
      vertex -22.9865 4.88592 0
    endloop
  endfacet
  facet normal 0 0 -1
    outer loop
      vertex -19.0119 13.813 0
      vertex -17.0628 18.9502 0
      vertex -15.7246 17.4639 0
    endloop
  endfacet
  facet normal 0 0 -1
    outer loop
      vertex -15.7246 17.4639 0
      vertex -12.75 22.0836 0
      vertex -11.75 20.3516 0
    endloop
  endfacet
  facet normal 0 0 -1
    outer loop
      vertex -11.75 20.3516 0
      vertex -7.87993 24.2519 0
      vertex -7.2619 22.3498 0
    endloop
  endfacet
  facet normal 0 0 -1
    outer loop
      vertex -7.2619 22.3498 0
      vertex -2.66548 25.3603 0
      vertex -2.45642 23.3713 0
    endloop
  endfacet
  facet normal 0 0 -1
    outer loop
      vertex -2.45642 23.3713 0
      vertex 2.66548 25.3603 0
      vertex 2.45642 23.3713 0
    endloop
  endfacet
  facet normal 0 0 -1
    outer loop
      vertex 2.45642 23.3713 0
      vertex 7.87993 24.2519 0
      vertex 7.2619 22.3498 0
    endloop
  endfacet
  facet normal 0 0 -1
    outer loop
      vertex 7.2619 22.3498 0
      vertex 12.75 22.0836 0
      vertex 11.75 20.3516 0
    endloop
  endfacet
  facet normal 0 0 -1
    outer loop
      vertex 11.75 20.3516 0
      vertex 17.0628 18.9502 0
      vertex 15.7246 17.4639 0
    endloop
  endfacet
  facet normal 0 0 -1
    outer loop
      vertex 15.7246 17.4639 0
      vertex 20.6299 14.9885 0
      vertex 19.0119 13.813 0
    endloop
  endfacet
  facet normal 0 0 -1
    outer loop
      vertex 19.0119 13.813 0
      vertex 23.2954 10.3718 0
      vertex 21.4683 9.55831 0
    endloop
  endfacet
  facet normal -0.994522 0.104528 0
    outer loop
      vertex -25.5 0 0
      vertex -25.5 0 3
      vertex -24.9428 5.30175 0
    endloop
  endfacet
  facet normal -0.994522 0.104528 0
    outer loop
      vertex -24.9428 5.30175 0
      vertex -25.5 0 3
      vertex -24.9428 5.30175 3
    endloop
  endfacet
  facet normal -0.994522 -0.104528 0
    outer loop
      vertex -25.5 0 0
      vertex -24.9428 -5.30175 0
      vertex -25.5 0 3
    endloop
  endfacet
  facet normal -0.994522 -0.104528 0
    outer loop
      vertex -25.5 0 3
      vertex -24.9428 -5.30175 0
      vertex -24.9428 -5.30175 3
    endloop
  endfacet
  facet normal -0.951056 -0.309017 0
    outer loop
      vertex -24.9428 -5.30175 0
      vertex -23.2954 -10.3718 0
      vertex -24.9428 -5.30175 3
    endloop
  endfacet
  facet normal -0.951056 -0.309017 0
    outer loop
      vertex -24.9428 -5.30175 3
      vertex -23.2954 -10.3718 0
      vertex -23.2954 -10.3718 3
    endloop
  endfacet
  facet normal -0.866025 -0.5 0
    outer loop
      vertex -23.2954 -10.3718 0
      vertex -20.6299 -14.9885 0
      vertex -23.2954 -10.3718 3
    endloop
  endfacet
  facet normal -0.866025 -0.5 0
    outer loop
      vertex -23.2954 -10.3718 3
      vertex -20.6299 -14.9885 0
      vertex -20.6299 -14.9885 3
    endloop
  endfacet
  facet normal -0.743145 -0.669131 0
    outer loop
      vertex -20.6299 -14.9885 0
      vertex -17.0628 -18.9502 0
      vertex -20.6299 -14.9885 3
    endloop
  endfacet
  facet normal -0.743145 -0.669131 0
    outer loop
      vertex -20.6299 -14.9885 3
      vertex -17.0628 -18.9502 0
      vertex -17.0628 -18.9502 3
    endloop
  endfacet
  facet normal -0.587785 -0.809017 0
    outer loop
      vertex -17.0628 -18.9502 3
      vertex -17.0628 -18.9502 0
      vertex -12.75 -22.0836 0
    endloop
  endfacet
  facet normal -0.587785 -0.809017 0
    outer loop
      vertex -12.75 -22.0836 3
      vertex -17.0628 -18.9502 3
      vertex -12.75 -22.0836 0
    endloop
  endfacet
  facet normal -0.406737 -0.913545 0
    outer loop
      vertex -12.75 -22.0836 3
      vertex -12.75 -22.0836 0
      vertex -7.87993 -24.2519 0
    endloop
  endfacet
  facet normal -0.406737 -0.913545 0
    outer loop
      vertex -7.87993 -24.2519 3
      vertex -12.75 -22.0836 3
      vertex -7.87993 -24.2519 0
    endloop
  endfacet
  facet normal -0.207912 -0.978148 0
    outer loop
      vertex -7.87993 -24.2519 3
      vertex -7.87993 -24.2519 0
      vertex -2.66548 -25.3603 0
    endloop
  endfacet
  facet normal -0.207912 -0.978148 0
    outer loop
      vertex -2.66548 -25.3603 3
      vertex -7.87993 -24.2519 3
      vertex -2.66548 -25.3603 0
    endloop
  endfacet
  facet normal 0 -1 0
    outer loop
      vertex -2.66548 -25.3603 3
      vertex -2.66548 -25.3603 0
      vertex 2.66548 -25.3603 0
    endloop
  endfacet
  facet normal 0 -1 0
    outer loop
      vertex 2.66548 -25.3603 3
      vertex -2.66548 -25.3603 3
      vertex 2.66548 -25.3603 0
    endloop
  endfacet
  facet normal 0.207912 -0.978148 0
    outer loop
      vertex 2.66548 -25.3603 3
      vertex 2.66548 -25.3603 0
      vertex 7.87993 -24.2519 0
    endloop
  endfacet
  facet normal 0.207912 -0.978148 0
    outer loop
      vertex 7.87993 -24.2519 3
      vertex 2.66548 -25.3603 3
      vertex 7.87993 -24.2519 0
    endloop
  endfacet
  facet normal 0.406737 -0.913545 0
    outer loop
      vertex 7.87993 -24.2519 3
      vertex 7.87993 -24.2519 0
      vertex 12.75 -22.0836 0
    endloop
  endfacet
  facet normal 0.406737 -0.913545 0
    outer loop
      vertex 12.75 -22.0836 3
      vertex 7.87993 -24.2519 3
      vertex 12.75 -22.0836 0
    endloop
  endfacet
  facet normal 0.587785 -0.809017 0
    outer loop
      vertex 12.75 -22.0836 3
      vertex 12.75 -22.0836 0
      vertex 17.0628 -18.9502 0
    endloop
  endfacet
  facet normal 0.587785 -0.809017 0
    outer loop
      vertex 17.0628 -18.9502 3
      vertex 12.75 -22.0836 3
      vertex 17.0628 -18.9502 0
    endloop
  endfacet
  facet normal 0.743145 -0.669131 0
    outer loop
      vertex 17.0628 -18.9502 3
      vertex 17.0628 -18.9502 0
      vertex 20.6299 -14.9885 0
    endloop
  endfacet
  facet normal 0.743145 -0.669131 0
    outer loop
      vertex 20.6299 -14.9885 3
      vertex 17.0628 -18.9502 3
      vertex 20.6299 -14.9885 0
    endloop
  endfacet
  facet normal 0.866025 -0.5 0
    outer loop
      vertex 20.6299 -14.9885 3
      vertex 20.6299 -14.9885 0
      vertex 23.2954 -10.3718 0
    endloop
  endfacet
  facet normal 0.866025 -0.5 0
    outer loop
      vertex 23.2954 -10.3718 3
      vertex 20.6299 -14.9885 3
      vertex 23.2954 -10.3718 0
    endloop
  endfacet
  facet normal 0.951056 -0.309017 0
    outer loop
      vertex 23.2954 -10.3718 3
      vertex 23.2954 -10.3718 0
      vertex 24.9428 -5.30175 0
    endloop
  endfacet
  facet normal 0.951056 -0.309017 0
    outer loop
      vertex 24.9428 -5.30175 3
      vertex 23.2954 -10.3718 3
      vertex 24.9428 -5.30175 0
    endloop
  endfacet
  facet normal 0.994522 -0.104528 0
    outer loop
      vertex 24.9428 -5.30175 3
      vertex 24.9428 -5.30175 0
      vertex 25.5 0 0
    endloop
  endfacet
  facet normal 0.994522 -0.104528 0
    outer loop
      vertex 25.5 0 3
      vertex 24.9428 -5.30175 3
      vertex 25.5 0 0
    endloop
  endfacet
  facet normal 0.994522 0.104528 0
    outer loop
      vertex 25.5 0 0
      vertex 24.9428 5.30175 0
      vertex 24.9428 5.30175 3
    endloop
  endfacet
  facet normal 0.994522 0.104528 0
    outer loop
      vertex 25.5 0 3
      vertex 25.5 0 0
      vertex 24.9428 5.30175 3
    endloop
  endfacet
  facet normal 0.951056 0.309017 0
    outer loop
      vertex 24.9428 5.30175 0
      vertex 23.2954 10.3718 0
      vertex 23.2954 10.3718 3
    endloop
  endfacet
  facet normal 0.951056 0.309017 0
    outer loop
      vertex 24.9428 5.30175 3
      vertex 24.9428 5.30175 0
      vertex 23.2954 10.3718 3
    endloop
  endfacet
  facet normal 0.866025 0.5 0
    outer loop
      vertex 23.2954 10.3718 0
      vertex 20.6299 14.9885 0
      vertex 20.6299 14.9885 3
    endloop
  endfacet
  facet normal 0.866025 0.5 0
    outer loop
      vertex 23.2954 10.3718 3
      vertex 23.2954 10.3718 0
      vertex 20.6299 14.9885 3
    endloop
  endfacet
  facet normal 0.743145 0.669131 0
    outer loop
      vertex 20.6299 14.9885 0
      vertex 17.0628 18.9502 0
      vertex 17.0628 18.9502 3
    endloop
  endfacet
  facet normal 0.743145 0.669131 0
    outer loop
      vertex 20.6299 14.9885 3
      vertex 20.6299 14.9885 0
      vertex 17.0628 18.9502 3
    endloop
  endfacet
  facet normal 0.587785 0.809017 0
    outer loop
      vertex 12.75 22.0836 0
      vertex 12.75 22.0836 3
      vertex 17.0628 18.9502 0
    endloop
  endfacet
  facet normal 0.587785 0.809017 0
    outer loop
      vertex 17.0628 18.9502 0
      vertex 12.75 22.0836 3
      vertex 17.0628 18.9502 3
    endloop
  endfacet
  facet normal 0.406737 0.913545 0
    outer loop
      vertex 7.87993 24.2519 0
      vertex 7.87993 24.2519 3
      vertex 12.75 22.0836 0
    endloop
  endfacet
  facet normal 0.406737 0.913545 0
    outer loop
      vertex 12.75 22.0836 0
      vertex 7.87993 24.2519 3
      vertex 12.75 22.0836 3
    endloop
  endfacet
  facet normal 0.207912 0.978148 0
    outer loop
      vertex 2.66548 25.3603 0
      vertex 2.66548 25.3603 3
      vertex 7.87993 24.2519 0
    endloop
  endfacet
  facet normal 0.207912 0.978148 0
    outer loop
      vertex 7.87993 24.2519 0
      vertex 2.66548 25.3603 3
      vertex 7.87993 24.2519 3
    endloop
  endfacet
  facet normal 0 1 0
    outer loop
      vertex -2.66548 25.3603 0
      vertex -2.66548 25.3603 3
      vertex 2.66548 25.3603 0
    endloop
  endfacet
  facet normal 0 1 0
    outer loop
      vertex 2.66548 25.3603 0
      vertex -2.66548 25.3603 3
      vertex 2.66548 25.3603 3
    endloop
  endfacet
  facet normal -0.207912 0.978148 0
    outer loop
      vertex -7.87993 24.2519 0
      vertex -7.87993 24.2519 3
      vertex -2.66548 25.3603 0
    endloop
  endfacet
  facet normal -0.207912 0.978148 0
    outer loop
      vertex -2.66548 25.3603 0
      vertex -7.87993 24.2519 3
      vertex -2.66548 25.3603 3
    endloop
  endfacet
  facet normal -0.406737 0.913545 0
    outer loop
      vertex -12.75 22.0836 0
      vertex -12.75 22.0836 3
      vertex -7.87993 24.2519 0
    endloop
  endfacet
  facet normal -0.406737 0.913545 0
    outer loop
      vertex -7.87993 24.2519 0
      vertex -12.75 22.0836 3
      vertex -7.87993 24.2519 3
    endloop
  endfacet
  facet normal -0.587785 0.809017 0
    outer loop
      vertex -17.0628 18.9502 0
      vertex -17.0628 18.9502 3
      vertex -12.75 22.0836 0
    endloop
  endfacet
  facet normal -0.587785 0.809017 0
    outer loop
      vertex -12.75 22.0836 0
      vertex -17.0628 18.9502 3
      vertex -12.75 22.0836 3
    endloop
  endfacet
  facet normal -0.743145 0.669131 0
    outer loop
      vertex -20.6299 14.9885 0
      vertex -20.6299 14.9885 3
      vertex -17.0628 18.9502 0
    endloop
  endfacet
  facet normal -0.743145 0.669131 0
    outer loop
      vertex -17.0628 18.9502 0
      vertex -20.6299 14.9885 3
      vertex -17.0628 18.9502 3
    endloop
  endfacet
  facet normal -0.866025 0.5 0
    outer loop
      vertex -23.2954 10.3718 0
      vertex -23.2954 10.3718 3
      vertex -20.6299 14.9885 0
    endloop
  endfacet
  facet normal -0.866025 0.5 0
    outer loop
      vertex -20.6299 14.9885 0
      vertex -23.2954 10.3718 3
      vertex -20.6299 14.9885 3
    endloop
  endfacet
  facet normal -0.951056 0.309017 0
    outer loop
      vertex -24.9428 5.30175 0
      vertex -24.9428 5.30175 3
      vertex -23.2954 10.3718 0
    endloop
  endfacet
  facet normal -0.951056 0.309017 0
    outer loop
      vertex -23.2954 10.3718 0
      vertex -24.9428 5.30175 3
      vertex -23.2954 10.3718 3
    endloop
  endfacet
  facet normal 0.994522 -0.104528 0
    outer loop
      vertex -22.9865 4.88592 0
      vertex -22.9865 4.88592 3
      vertex -23.5 0 3
    endloop
  endfacet
  facet normal 0.994522 -0.104528 0
    outer loop
      vertex -23.5 0 0
      vertex -22.9865 4.88592 0
      vertex -23.5 0 3
    endloop
  endfacet
  facet normal 0.994522 0.104528 0
    outer loop
      vertex -23.5 0 3
      vertex -22.9865 -4.88592 3
      vertex -22.9865 -4.88592 0
    endloop
  endfacet
  facet normal 0.994522 0.104528 0
    outer loop
      vertex -23.5 0 0
      vertex -23.5 0 3
      vertex -22.9865 -4.88592 0
    endloop
  endfacet
  facet normal 0.951056 -0.309017 0
    outer loop
      vertex -21.4683 9.55831 0
      vertex -21.4683 9.55831 3
      vertex -22.9865 4.88592 3
    endloop
  endfacet
  facet normal 0.951056 -0.309017 0
    outer loop
      vertex -22.9865 4.88592 0
      vertex -21.4683 9.55831 0
      vertex -22.9865 4.88592 3
    endloop
  endfacet
  facet normal 0.866025 -0.5 0
    outer loop
      vertex -19.0119 13.813 0
      vertex -19.0119 13.813 3
      vertex -21.4683 9.55831 3
    endloop
  endfacet
  facet normal 0.866025 -0.5 0
    outer loop
      vertex -21.4683 9.55831 0
      vertex -19.0119 13.813 0
      vertex -21.4683 9.55831 3
    endloop
  endfacet
  facet normal 0.743145 -0.669131 0
    outer loop
      vertex -15.7246 17.4639 0
      vertex -15.7246 17.4639 3
      vertex -19.0119 13.813 3
    endloop
  endfacet
  facet normal 0.743145 -0.669131 0
    outer loop
      vertex -19.0119 13.813 0
      vertex -15.7246 17.4639 0
      vertex -19.0119 13.813 3
    endloop
  endfacet
  facet normal 0.587785 -0.809017 0
    outer loop
      vertex -11.75 20.3516 0
      vertex -11.75 20.3516 3
      vertex -15.7246 17.4639 3
    endloop
  endfacet
  facet normal 0.587785 -0.809017 0
    outer loop
      vertex -15.7246 17.4639 0
      vertex -11.75 20.3516 0
      vertex -15.7246 17.4639 3
    endloop
  endfacet
  facet normal 0.406737 -0.913545 0
    outer loop
      vertex -7.2619 22.3498 0
      vertex -7.2619 22.3498 3
      vertex -11.75 20.3516 3
    endloop
  endfacet
  facet normal 0.406737 -0.913545 0
    outer loop
      vertex -11.75 20.3516 0
      vertex -7.2619 22.3498 0
      vertex -11.75 20.3516 3
    endloop
  endfacet
  facet normal 0.207912 -0.978148 0
    outer loop
      vertex -2.45642 23.3713 0
      vertex -2.45642 23.3713 3
      vertex -7.2619 22.3498 3
    endloop
  endfacet
  facet normal 0.207912 -0.978148 0
    outer loop
      vertex -7.2619 22.3498 0
      vertex -2.45642 23.3713 0
      vertex -7.2619 22.3498 3
    endloop
  endfacet
  facet normal 0 -1 0
    outer loop
      vertex 2.45642 23.3713 0
      vertex 2.45642 23.3713 3
      vertex -2.45642 23.3713 3
    endloop
  endfacet
  facet normal 0 -1 0
    outer loop
      vertex -2.45642 23.3713 0
      vertex 2.45642 23.3713 0
      vertex -2.45642 23.3713 3
    endloop
  endfacet
  facet normal -0.207912 -0.978148 0
    outer loop
      vertex 7.2619 22.3498 0
      vertex 7.2619 22.3498 3
      vertex 2.45642 23.3713 3
    endloop
  endfacet
  facet normal -0.207912 -0.978148 0
    outer loop
      vertex 2.45642 23.3713 0
      vertex 7.2619 22.3498 0
      vertex 2.45642 23.3713 3
    endloop
  endfacet
  facet normal -0.406737 -0.913545 0
    outer loop
      vertex 11.75 20.3516 0
      vertex 11.75 20.3516 3
      vertex 7.2619 22.3498 3
    endloop
  endfacet
  facet normal -0.406737 -0.913545 0
    outer loop
      vertex 7.2619 22.3498 0
      vertex 11.75 20.3516 0
      vertex 7.2619 22.3498 3
    endloop
  endfacet
  facet normal -0.587785 -0.809017 0
    outer loop
      vertex 15.7246 17.4639 0
      vertex 15.7246 17.4639 3
      vertex 11.75 20.3516 3
    endloop
  endfacet
  facet normal -0.587785 -0.809017 0
    outer loop
      vertex 11.75 20.3516 0
      vertex 15.7246 17.4639 0
      vertex 11.75 20.3516 3
    endloop
  endfacet
  facet normal -0.743145 -0.669131 0
    outer loop
      vertex 19.0119 13.813 3
      vertex 15.7246 17.4639 3
      vertex 19.0119 13.813 0
    endloop
  endfacet
  facet normal -0.743145 -0.669131 0
    outer loop
      vertex 19.0119 13.813 0
      vertex 15.7246 17.4639 3
      vertex 15.7246 17.4639 0
    endloop
  endfacet
  facet normal -0.866025 -0.5 0
    outer loop
      vertex 21.4683 9.55831 3
      vertex 19.0119 13.813 3
      vertex 21.4683 9.55831 0
    endloop
  endfacet
  facet normal -0.866025 -0.5 0
    outer loop
      vertex 21.4683 9.55831 0
      vertex 19.0119 13.813 3
      vertex 19.0119 13.813 0
    endloop
  endfacet
  facet normal -0.951056 -0.309017 0
    outer loop
      vertex 22.9865 4.88592 3
      vertex 21.4683 9.55831 3
      vertex 22.9865 4.88592 0
    endloop
  endfacet
  facet normal -0.951056 -0.309017 0
    outer loop
      vertex 22.9865 4.88592 0
      vertex 21.4683 9.55831 3
      vertex 21.4683 9.55831 0
    endloop
  endfacet
  facet normal -0.994522 -0.104528 0
    outer loop
      vertex 23.5 0 3
      vertex 22.9865 4.88592 3
      vertex 23.5 0 0
    endloop
  endfacet
  facet normal -0.994522 -0.104528 0
    outer loop
      vertex 23.5 0 0
      vertex 22.9865 4.88592 3
      vertex 22.9865 4.88592 0
    endloop
  endfacet
  facet normal -0.994522 0.104528 0
    outer loop
      vertex 23.5 0 3
      vertex 23.5 0 0
      vertex 22.9865 -4.88592 3
    endloop
  endfacet
  facet normal -0.994522 0.104528 0
    outer loop
      vertex 22.9865 -4.88592 3
      vertex 23.5 0 0
      vertex 22.9865 -4.88592 0
    endloop
  endfacet
  facet normal -0.951056 0.309017 0
    outer loop
      vertex 22.9865 -4.88592 3
      vertex 22.9865 -4.88592 0
      vertex 21.4683 -9.55831 3
    endloop
  endfacet
  facet normal -0.951056 0.309017 0
    outer loop
      vertex 21.4683 -9.55831 3
      vertex 22.9865 -4.88592 0
      vertex 21.4683 -9.55831 0
    endloop
  endfacet
  facet normal -0.866025 0.5 0
    outer loop
      vertex 21.4683 -9.55831 3
      vertex 21.4683 -9.55831 0
      vertex 19.0119 -13.813 3
    endloop
  endfacet
  facet normal -0.866025 0.5 0
    outer loop
      vertex 19.0119 -13.813 3
      vertex 21.4683 -9.55831 0
      vertex 19.0119 -13.813 0
    endloop
  endfacet
  facet normal -0.743145 0.669131 0
    outer loop
      vertex 19.0119 -13.813 3
      vertex 19.0119 -13.813 0
      vertex 15.7246 -17.4639 3
    endloop
  endfacet
  facet normal -0.743145 0.669131 0
    outer loop
      vertex 15.7246 -17.4639 3
      vertex 19.0119 -13.813 0
      vertex 15.7246 -17.4639 0
    endloop
  endfacet
  facet normal -0.587785 0.809017 0
    outer loop
      vertex 15.7246 -17.4639 3
      vertex 15.7246 -17.4639 0
      vertex 11.75 -20.3516 3
    endloop
  endfacet
  facet normal -0.587785 0.809017 0
    outer loop
      vertex 11.75 -20.3516 3
      vertex 15.7246 -17.4639 0
      vertex 11.75 -20.3516 0
    endloop
  endfacet
  facet normal -0.406737 0.913545 0
    outer loop
      vertex 11.75 -20.3516 3
      vertex 11.75 -20.3516 0
      vertex 7.2619 -22.3498 3
    endloop
  endfacet
  facet normal -0.406737 0.913545 0
    outer loop
      vertex 7.2619 -22.3498 3
      vertex 11.75 -20.3516 0
      vertex 7.2619 -22.3498 0
    endloop
  endfacet
  facet normal -0.207912 0.978148 0
    outer loop
      vertex 7.2619 -22.3498 3
      vertex 7.2619 -22.3498 0
      vertex 2.45642 -23.3713 3
    endloop
  endfacet
  facet normal -0.207912 0.978148 0
    outer loop
      vertex 2.45642 -23.3713 3
      vertex 7.2619 -22.3498 0
      vertex 2.45642 -23.3713 0
    endloop
  endfacet
  facet normal 0 1 0
    outer loop
      vertex 2.45642 -23.3713 3
      vertex 2.45642 -23.3713 0
      vertex -2.45642 -23.3713 3
    endloop
  endfacet
  facet normal 0 1 0
    outer loop
      vertex -2.45642 -23.3713 3
      vertex 2.45642 -23.3713 0
      vertex -2.45642 -23.3713 0
    endloop
  endfacet
  facet normal 0.207912 0.978148 0
    outer loop
      vertex -2.45642 -23.3713 3
      vertex -2.45642 -23.3713 0
      vertex -7.2619 -22.3498 3
    endloop
  endfacet
  facet normal 0.207912 0.978148 0
    outer loop
      vertex -7.2619 -22.3498 3
      vertex -2.45642 -23.3713 0
      vertex -7.2619 -22.3498 0
    endloop
  endfacet
  facet normal 0.406737 0.913545 0
    outer loop
      vertex -7.2619 -22.3498 3
      vertex -7.2619 -22.3498 0
      vertex -11.75 -20.3516 3
    endloop
  endfacet
  facet normal 0.406737 0.913545 0
    outer loop
      vertex -11.75 -20.3516 3
      vertex -7.2619 -22.3498 0
      vertex -11.75 -20.3516 0
    endloop
  endfacet
  facet normal 0.587785 0.809017 0
    outer loop
      vertex -11.75 -20.3516 3
      vertex -11.75 -20.3516 0
      vertex -15.7246 -17.4639 3
    endloop
  endfacet
  facet normal 0.587785 0.809017 0
    outer loop
      vertex -15.7246 -17.4639 3
      vertex -11.75 -20.3516 0
      vertex -15.7246 -17.4639 0
    endloop
  endfacet
  facet normal 0.743145 0.669131 0
    outer loop
      vertex -19.0119 -13.813 3
      vertex -15.7246 -17.4639 3
      vertex -15.7246 -17.4639 0
    endloop
  endfacet
  facet normal 0.743145 0.669131 0
    outer loop
      vertex -19.0119 -13.813 0
      vertex -19.0119 -13.813 3
      vertex -15.7246 -17.4639 0
    endloop
  endfacet
  facet normal 0.866025 0.5 0
    outer loop
      vertex -21.4683 -9.55831 3
      vertex -19.0119 -13.813 3
      vertex -19.0119 -13.813 0
    endloop
  endfacet
  facet normal 0.866025 0.5 0
    outer loop
      vertex -21.4683 -9.55831 0
      vertex -21.4683 -9.55831 3
      vertex -19.0119 -13.813 0
    endloop
  endfacet
  facet normal 0.951056 0.309017 0
    outer loop
      vertex -22.9865 -4.88592 3
      vertex -21.4683 -9.55831 3
      vertex -21.4683 -9.55831 0
    endloop
  endfacet
  facet normal 0.951056 0.309017 0
    outer loop
      vertex -22.9865 -4.88592 0
      vertex -22.9865 -4.88592 3
      vertex -21.4683 -9.55831 0
    endloop
  endfacet
  facet normal 0 0 1
    outer loop
      vertex -24.9428 5.30175 3
      vertex -25.5 0 3
      vertex -24.9428 -5.30175 3
    endloop
  endfacet
  facet normal 0 0 1
    outer loop
      vertex -22.9865 -4.88592 3
      vertex -24.9428 5.30175 3
      vertex -23.2954 -10.3718 3
    endloop
  endfacet
  facet normal 0 0 1
    outer loop
      vertex -23.2954 -10.3718 3
      vertex -24.9428 5.30175 3
      vertex -24.9428 -5.30175 3
    endloop
  endfacet
  facet normal 0 0 1
    outer loop
      vertex -22.9865 4.88592 3
      vertex -21.4683 9.55831 3
      vertex -24.9428 5.30175 3
    endloop
  endfacet
  facet normal 0 0 1
    outer loop
      vertex -15.7246 -17.4639 3
      vertex -19.0119 -13.813 3
      vertex -17.0628 -18.9502 3
    endloop
  endfacet
  facet normal 0 0 1
    outer loop
      vertex 21.4683 9.55831 3
      vertex 22.9865 4.88592 3
      vertex 24.9428 5.30175 3
    endloop
  endfacet
  facet normal 0 0 1
    outer loop
      vertex 19.0119 13.813 3
      vertex 21.4683 9.55831 3
      vertex 23.2954 10.3718 3
    endloop
  endfacet
  facet normal 0 0 1
    outer loop
      vertex 15.7246 17.4639 3
      vertex 19.0119 13.813 3
      vertex 20.6299 14.9885 3
    endloop
  endfacet
  facet normal 0 0 1
    outer loop
      vertex 11.75 20.3516 3
      vertex 15.7246 17.4639 3
      vertex 17.0628 18.9502 3
    endloop
  endfacet
  facet normal 0 0 1
    outer loop
      vertex 7.2619 22.3498 3
      vertex 11.75 20.3516 3
      vertex 12.75 22.0836 3
    endloop
  endfacet
  facet normal 0 0 1
    outer loop
      vertex 2.45642 23.3713 3
      vertex 7.2619 22.3498 3
      vertex 7.87993 24.2519 3
    endloop
  endfacet
  facet normal 0 0 1
    outer loop
      vertex 22.9865 4.88592 3
      vertex 23.5 0 3
      vertex 25.5 0 3
    endloop
  endfacet
  facet normal 0 0 1
    outer loop
      vertex -11.75 20.3516 3
      vertex -7.2619 22.3498 3
      vertex -7.87993 24.2519 3
    endloop
  endfacet
  facet normal 0 0 1
    outer loop
      vertex -20.6299 14.9885 3
      vertex -24.9428 5.30175 3
      vertex -17.0628 18.9502 3
    endloop
  endfacet
  facet normal 0 0 1
    outer loop
      vertex -23.2954 10.3718 3
      vertex -24.9428 5.30175 3
      vertex -20.6299 14.9885 3
    endloop
  endfacet
  facet normal 0 0 1
    outer loop
      vertex -20.6299 -14.9885 3
      vertex -22.9865 -4.88592 3
      vertex -23.2954 -10.3718 3
    endloop
  endfacet
  facet normal 0 0 1
    outer loop
      vertex 19.0119 -13.813 3
      vertex 15.7246 -17.4639 3
      vertex 20.6299 -14.9885 3
    endloop
  endfacet
  facet normal 0 0 1
    outer loop
      vertex 21.4683 -9.55831 3
      vertex 19.0119 -13.813 3
      vertex 23.2954 -10.3718 3
    endloop
  endfacet
  facet normal 0 0 1
    outer loop
      vertex -7.2619 22.3498 3
      vertex -2.45642 23.3713 3
      vertex -2.66548 25.3603 3
    endloop
  endfacet
  facet normal 0 0 1
    outer loop
      vertex -19.0119 13.813 3
      vertex -15.7246 17.4639 3
      vertex -12.75 22.0836 3
    endloop
  endfacet
  facet normal 0 0 1
    outer loop
      vertex -17.0628 18.9502 3
      vertex -19.0119 13.813 3
      vertex -12.75 22.0836 3
    endloop
  endfacet
  facet normal 0 0 1
    outer loop
      vertex -17.0628 18.9502 3
      vertex -24.9428 5.30175 3
      vertex -19.0119 13.813 3
    endloop
  endfacet
  facet normal 0 0 1
    outer loop
      vertex -12.75 22.0836 3
      vertex -15.7246 17.4639 3
      vertex -7.87993 24.2519 3
    endloop
  endfacet
  facet normal 0 0 1
    outer loop
      vertex -15.7246 17.4639 3
      vertex -11.75 20.3516 3
      vertex -7.87993 24.2519 3
    endloop
  endfacet
  facet normal 0 0 1
    outer loop
      vertex -7.87993 24.2519 3
      vertex -7.2619 22.3498 3
      vertex -2.66548 25.3603 3
    endloop
  endfacet
  facet normal 0 0 1
    outer loop
      vertex -21.4683 9.55831 3
      vertex -19.0119 13.813 3
      vertex -24.9428 5.30175 3
    endloop
  endfacet
  facet normal 0 0 1
    outer loop
      vertex -2.66548 25.3603 3
      vertex -2.45642 23.3713 3
      vertex 2.66548 25.3603 3
    endloop
  endfacet
  facet normal 0 0 1
    outer loop
      vertex 2.66548 25.3603 3
      vertex 2.45642 23.3713 3
      vertex 7.87993 24.2519 3
    endloop
  endfacet
  facet normal 0 0 1
    outer loop
      vertex 7.87993 24.2519 3
      vertex 7.2619 22.3498 3
      vertex 12.75 22.0836 3
    endloop
  endfacet
  facet normal 0 0 1
    outer loop
      vertex 12.75 22.0836 3
      vertex 11.75 20.3516 3
      vertex 17.0628 18.9502 3
    endloop
  endfacet
  facet normal 0 0 1
    outer loop
      vertex 17.0628 18.9502 3
      vertex 15.7246 17.4639 3
      vertex 20.6299 14.9885 3
    endloop
  endfacet
  facet normal 0 0 1
    outer loop
      vertex 20.6299 14.9885 3
      vertex 19.0119 13.813 3
      vertex 23.2954 10.3718 3
    endloop
  endfacet
  facet normal 0 0 1
    outer loop
      vertex 23.2954 10.3718 3
      vertex 21.4683 9.55831 3
      vertex 24.9428 5.30175 3
    endloop
  endfacet
  facet normal 0 0 1
    outer loop
      vertex 24.9428 5.30175 3
      vertex 22.9865 4.88592 3
      vertex 25.5 0 3
    endloop
  endfacet
  facet normal 0 0 1
    outer loop
      vertex 25.5 0 3
      vertex 23.5 0 3
      vertex 24.9428 -5.30175 3
    endloop
  endfacet
  facet normal 0 0 1
    outer loop
      vertex 24.9428 -5.30175 3
      vertex 22.9865 -4.88592 3
      vertex 23.2954 -10.3718 3
    endloop
  endfacet
  facet normal 0 0 1
    outer loop
      vertex -2.45642 23.3713 3
      vertex 2.45642 23.3713 3
      vertex 2.66548 25.3603 3
    endloop
  endfacet
  facet normal 0 0 1
    outer loop
      vertex 22.9865 -4.88592 3
      vertex 21.4683 -9.55831 3
      vertex 23.2954 -10.3718 3
    endloop
  endfacet
  facet normal 0 0 1
    outer loop
      vertex 23.2954 -10.3718 3
      vertex 19.0119 -13.813 3
      vertex 20.6299 -14.9885 3
    endloop
  endfacet
  facet normal 0 0 1
    outer loop
      vertex 20.6299 -14.9885 3
      vertex 15.7246 -17.4639 3
      vertex 17.0628 -18.9502 3
    endloop
  endfacet
  facet normal 0 0 1
    outer loop
      vertex 17.0628 -18.9502 3
      vertex 11.75 -20.3516 3
      vertex 12.75 -22.0836 3
    endloop
  endfacet
  facet normal 0 0 1
    outer loop
      vertex 12.75 -22.0836 3
      vertex 7.2619 -22.3498 3
      vertex 7.87993 -24.2519 3
    endloop
  endfacet
  facet normal 0 0 1
    outer loop
      vertex 7.87993 -24.2519 3
      vertex 2.45642 -23.3713 3
      vertex 2.66548 -25.3603 3
    endloop
  endfacet
  facet normal 0 0 1
    outer loop
      vertex 2.66548 -25.3603 3
      vertex -2.45642 -23.3713 3
      vertex -2.66548 -25.3603 3
    endloop
  endfacet
  facet normal 0 0 1
    outer loop
      vertex -2.66548 -25.3603 3
      vertex -7.2619 -22.3498 3
      vertex -7.87993 -24.2519 3
    endloop
  endfacet
  facet normal 0 0 1
    outer loop
      vertex -7.87993 -24.2519 3
      vertex -11.75 -20.3516 3
      vertex -12.75 -22.0836 3
    endloop
  endfacet
  facet normal 0 0 1
    outer loop
      vertex 23.5 0 3
      vertex 22.9865 -4.88592 3
      vertex 24.9428 -5.30175 3
    endloop
  endfacet
  facet normal 0 0 1
    outer loop
      vertex -12.75 -22.0836 3
      vertex -15.7246 -17.4639 3
      vertex -17.0628 -18.9502 3
    endloop
  endfacet
  facet normal 0 0 1
    outer loop
      vertex -17.0628 -18.9502 3
      vertex -19.0119 -13.813 3
      vertex -20.6299 -14.9885 3
    endloop
  endfacet
  facet normal 0 0 1
    outer loop
      vertex -19.0119 -13.813 3
      vertex -21.4683 -9.55831 3
      vertex -20.6299 -14.9885 3
    endloop
  endfacet
  facet normal 0 0 1
    outer loop
      vertex -22.9865 -4.88592 3
      vertex -23.5 0 3
      vertex -24.9428 5.30175 3
    endloop
  endfacet
  facet normal 0 0 1
    outer loop
      vertex -21.4683 -9.55831 3
      vertex -22.9865 -4.88592 3
      vertex -20.6299 -14.9885 3
    endloop
  endfacet
  facet normal 0 0 1
    outer loop
      vertex 15.7246 -17.4639 3
      vertex 11.75 -20.3516 3
      vertex 17.0628 -18.9502 3
    endloop
  endfacet
  facet normal 0 0 1
    outer loop
      vertex 11.75 -20.3516 3
      vertex 7.2619 -22.3498 3
      vertex 12.75 -22.0836 3
    endloop
  endfacet
  facet normal 0 0 1
    outer loop
      vertex 7.2619 -22.3498 3
      vertex 2.45642 -23.3713 3
      vertex 7.87993 -24.2519 3
    endloop
  endfacet
  facet normal 0 0 1
    outer loop
      vertex 2.45642 -23.3713 3
      vertex -2.45642 -23.3713 3
      vertex 2.66548 -25.3603 3
    endloop
  endfacet
  facet normal 0 0 1
    outer loop
      vertex -2.45642 -23.3713 3
      vertex -7.2619 -22.3498 3
      vertex -2.66548 -25.3603 3
    endloop
  endfacet
  facet normal 0 0 1
    outer loop
      vertex -7.2619 -22.3498 3
      vertex -11.75 -20.3516 3
      vertex -7.87993 -24.2519 3
    endloop
  endfacet
  facet normal 0 0 1
    outer loop
      vertex -11.75 -20.3516 3
      vertex -15.7246 -17.4639 3
      vertex -12.75 -22.0836 3
    endloop
  endfacet
  facet normal 0 0 1
    outer loop
      vertex -23.5 0 3
      vertex -22.9865 4.88592 3
      vertex -24.9428 5.30175 3
    endloop
  endfacet
endsolid OpenSCAD_Model
